<?xml version="1.0" encoding="UTF-8" standalone="no"?>
<svg
   xmlns:dc="http://purl.org/dc/elements/1.1/"
   xmlns:cc="http://creativecommons.org/ns#"
   xmlns:rdf="http://www.w3.org/1999/02/22-rdf-syntax-ns#"
   xmlns:svg="http://www.w3.org/2000/svg"
   xmlns="http://www.w3.org/2000/svg"
   xmlns:xlink="http://www.w3.org/1999/xlink"
   xmlns:sodipodi="http://sodipodi.sourceforge.net/DTD/sodipodi-0.dtd"
   xmlns:inkscape="http://www.inkscape.org/namespaces/inkscape"
   version="1.1"
   viewBox="0 0 600 500"
   stroke-miterlimit="10"
   id="svg2"
   inkscape:version="0.91 r13725"
   sodipodi:docname="process-anatomy-1.svg"
   width="600"
   height="500"
   style="fill:none;stroke:none;stroke-linecap:square;stroke-miterlimit:10">
  <metadata
     id="metadata143">
    <rdf:RDF>
      <cc:Work
         rdf:about="">
        <dc:format>image/svg+xml</dc:format>
        <dc:type
           rdf:resource="http://purl.org/dc/dcmitype/StillImage" />
        <dc:title />
      </cc:Work>
    </rdf:RDF>
  </metadata>
  <defs
     id="defs141">
    <linearGradient
       inkscape:collect="always"
       xlink:href="#p7.2"
       id="linearGradient3411"
       gradientUnits="userSpaceOnUse"
       gradientTransform="scale(22.271537,22.271537)"
       spreadMethod="pad"
       x1="33.653336"
       y1="27.2999"
       x2="33.653336"
       y2="5.0283642" />
    <linearGradient
       inkscape:collect="always"
       xlink:href="#p7.4"
       id="linearGradient3413"
       gradientUnits="userSpaceOnUse"
       gradientTransform="scale(16.487192,16.487192)"
       spreadMethod="pad"
       x1="38.629986"
       y1="31.94449"
       x2="38.629986"
       y2="15.457299" />
  </defs>
  <sodipodi:namedview
     pagecolor="#ffffff"
     bordercolor="#666666"
     borderopacity="1"
     objecttolerance="10"
     gridtolerance="10"
     guidetolerance="10"
     inkscape:pageopacity="0"
     inkscape:pageshadow="2"
     inkscape:window-width="1440"
     inkscape:window-height="803"
     id="namedview139"
     showgrid="false"
     fit-margin-top="0"
     fit-margin-left="0"
     fit-margin-right="0"
     fit-margin-bottom="0"
     inkscape:zoom="0.32291667"
     inkscape:cx="17.032263"
     inkscape:cy="360"
     inkscape:window-x="0"
     inkscape:window-y="1"
     inkscape:window-maximized="1"
     inkscape:current-layer="svg2" />
  <clipPath
     id="p7.0">
    <path
       d="M 0,0 960,0 960,720 0,720 0,0 Z"
       id="path5"
       inkscape:connector-curvature="0"
       style="clip-rule:nonzero" />
  </clipPath>
  <g
     clip-path="url(#p7.0)"
     id="g7"
     transform="matrix(0.5,0,0,0.5,63.483873,62.193547)">
    <path
       d="m 0,0 960,0 0,720 -960,0 z"
       id="path9"
       inkscape:connector-curvature="0"
       style="fill:#000000;fill-opacity:0;fill-rule:evenodd" />
    <g
       id="g11"
       style="filter:url(#shadowFilter-p7.1)">
      <use
         xlink:href="#p7.1"
         transform="translate(0,2.6666667)"
         id="use13"
         x="0"
         y="0"
         width="100%"
         height="100%" />
    </g>
    <defs
       id="defs15">
      <filter
         id="shadowFilter-p7.1"
         filterUnits="userSpaceOnUse">
        <feGaussianBlur
           in="SourceAlpha"
           stdDeviation="3.5555553"
           result="blur"
           id="feGaussianBlur18" />
        <feComponentTransfer
           in="blur"
           id="feComponentTransfer20"
           style="color-interpolation-filters:sRGB">
          <feFuncR
             type="linear"
             slope="0"
             intercept="0.0"
             id="feFuncR22" />
          <feFuncG
             type="linear"
             slope="0"
             intercept="0.0"
             id="feFuncG24" />
          <feFuncB
             type="linear"
             slope="0"
             intercept="0.0"
             id="feFuncB26" />
          <feFuncA
             type="linear"
             slope="0.7490196"
             intercept="0"
             id="feFuncA28" />
        </feComponentTransfer>
      </filter>
    </defs>
    <g
       id="p7.1">
      <defs
         id="defs31">
        <linearGradient
           id="p7.2"
           gradientUnits="userSpaceOnUse"
           gradientTransform="scale(22.271537,22.271537)"
           spreadMethod="pad"
           x1="33.653336"
           y1="27.2999"
           x2="33.653336"
           y2="5.0283642">
          <stop
             offset="0.0"
             stop-color="#2a869f"
             id="stop34" />
          <stop
             offset="0.8"
             stop-color="#37b1d1"
             id="stop36" />
          <stop
             offset="1.0"
             stop-color="#34b3d5"
             id="stop38" />
        </linearGradient>
      </defs>
      <path
         d="m 210.48839,111.9894 539.02313,0 0,496.02136 -539.02313,0 z"
         id="path40"
         inkscape:connector-curvature="0"
         style="fill:url(#linearGradient3411);fill-rule:evenodd" />
    </g>
    <path
       d="m 210.48839,111.9894 539.02313,0 0,56.26656 -539.02313,0 z"
       id="path42"
       inkscape:connector-curvature="0"
       style="fill:#000000;fill-opacity:0;fill-rule:evenodd" />
    <path
       d="m 231.91026,152.99876 q 0,0.35937 -0.0469,0.625 -0.0312,0.25 -0.125,0.4375 -0.0937,0.17187 -0.23437,0.25 -0.125,0.0781 -0.28125,0.0781 l -12.125,0 q -0.45313,0 -0.85938,-0.29687 -0.39062,-0.3125 -0.39062,-1.07813 l 0,-22.53125 q 0,-0.76562 0.39062,-1.0625 0.40625,-0.3125 0.85938,-0.3125 l 12,0 q 0.15625,0 0.28125,0.0781 0.125,0.0781 0.20312,0.26562 0.0781,0.17188 0.125,0.4375 0.0469,0.26563 0.0469,0.65625 0,0.34375 -0.0469,0.60938 -0.0469,0.26562 -0.125,0.4375 -0.0781,0.15625 -0.20312,0.23437 -0.125,0.0781 -0.28125,0.0781 l -9.89063,0 0,7.9375 8.48438,0 q 0.15625,0 0.28125,0.0937 0.125,0.0781 0.20312,0.23437 0.0937,0.15625 0.125,0.4375 0.0469,0.26563 0.0469,0.64063 0,0.34375 -0.0469,0.60937 -0.0312,0.25 -0.125,0.40625 -0.0781,0.15625 -0.20312,0.21875 -0.125,0.0625 -0.28125,0.0625 l -8.48438,0 0,9.04688 10.01563,0 q 0.15625,0 0.28125,0.0781 0.14062,0.0781 0.23437,0.25 0.0937,0.15625 0.125,0.42188 0.0469,0.26562 0.0469,0.65625 z m 20.23437,0.90625 q 0,0.15625 -0.0781,0.26562 -0.0781,0.0937 -0.25,0.1875 -0.17188,0.0781 -0.48438,0.10938 -0.3125,0.0469 -0.78125,0.0469 -0.5,0 -0.8125,-0.0469 -0.3125,-0.0312 -0.48437,-0.10938 -0.17188,-0.0937 -0.25,-0.1875 -0.0781,-0.10937 -0.0781,-0.26562 l 0,-10.29688 q 0,-1.5 -0.23437,-2.42187 -0.23438,-0.92188 -0.6875,-1.57813 -0.45313,-0.67187 -1.17188,-1.01562 -0.70312,-0.35938 -1.64062,-0.35938 -1.20313,0 -2.42188,0.85938 -1.20312,0.85937 -2.53125,2.51562 l 0,12.29688 q 0,0.15625 -0.0781,0.26562 -0.0781,0.0937 -0.26563,0.1875 -0.17187,0.0781 -0.48437,0.10938 -0.3125,0.0469 -0.79688,0.0469 -0.46875,0 -0.78125,-0.0469 -0.3125,-0.0312 -0.5,-0.10938 -0.1875,-0.0937 -0.26562,-0.1875 -0.0625,-0.10937 -0.0625,-0.26562 l 0,-17.57813 q 0,-0.15625 0.0625,-0.26562 0.0625,-0.10938 0.23437,-0.1875 0.17188,-0.0937 0.4375,-0.125 0.28125,-0.0312 0.73438,-0.0312 0.4375,0 0.71875,0.0312 0.28125,0.0312 0.4375,0.125 0.15625,0.0781 0.21875,0.1875 0.0781,0.10937 0.0781,0.26562 l 0,2.3125 q 1.48438,-1.65625 2.95313,-2.42187 1.46875,-0.78125 2.98437,-0.78125 1.75,0 2.95313,0.60937 1.20312,0.59375 1.9375,1.59375 0.75,0.98438 1.0625,2.32813 0.32812,1.32812 0.32812,3.20312 l 0,10.73438 z m 20.2969,-17.625 q 0,0.0781 -0.0156,0.17187 0,0.0781 -0.0312,0.1875 -0.0156,0.0937 -0.0469,0.21875 -0.0312,0.10938 -0.0625,0.25 l -6,16.6875 q -0.0781,0.21875 -0.20313,0.35938 -0.125,0.14062 -0.39062,0.21875 -0.25,0.0781 -0.64063,0.10937 -0.39062,0.0312 -0.96875,0.0312 -0.59375,0 -0.98437,-0.0469 -0.39063,-0.0312 -0.64063,-0.10938 -0.23437,-0.0937 -0.375,-0.21875 -0.125,-0.14062 -0.20312,-0.34375 l -5.9844,-16.6875 q -0.0781,-0.23437 -0.125,-0.40625 -0.0469,-0.1875 -0.0625,-0.26562 0,-0.0937 0,-0.15625 0,-0.15625 0.0781,-0.26563 0.0781,-0.125 0.25001,-0.1875 0.1875,-0.0781 0.48438,-0.0937 0.3125,-0.0156 0.76562,-0.0156 0.5625,0 0.90625,0.0312 0.34375,0.0312 0.53125,0.10937 0.1875,0.0781 0.26563,0.20313 0.0937,0.10937 0.17187,0.28125 l 4.95313,14.48437 0.0781,0.23438 0.0625,-0.23438 4.90625,-14.48437 q 0.0312,-0.17188 0.125,-0.28125 0.10938,-0.125 0.29688,-0.20313 0.1875,-0.0781 0.5,-0.10937 0.32812,-0.0312 0.85937,-0.0312 0.4375,0 0.73438,0.0156 0.29687,0.0156 0.45312,0.0937 0.17188,0.0781 0.23438,0.1875 0.0781,0.10938 0.0781,0.26563 z m 6.8789,17.625 q 0,0.15625 -0.0781,0.26562 -0.0781,0.0937 -0.26563,0.1875 -0.17187,0.0781 -0.48437,0.10938 -0.3125,0.0469 -0.79688,0.0469 -0.46875,0 -0.78125,-0.0469 -0.3125,-0.0312 -0.5,-0.10938 -0.1875,-0.0937 -0.26562,-0.1875 -0.0625,-0.10937 -0.0625,-0.26562 l 0,-17.57813 q 0,-0.14062 0.0625,-0.25 0.0781,-0.125 0.26562,-0.20312 0.1875,-0.0781 0.5,-0.10938 0.3125,-0.0469 0.78125,-0.0469 0.48438,0 0.79688,0.0469 0.3125,0.0312 0.48437,0.10938 0.1875,0.0781 0.26563,0.20312 0.0781,0.10938 0.0781,0.25 l 0,17.57813 z m 0.35938,-23.51563 q 0,1.125 -0.4375,1.54688 -0.42188,0.40625 -1.5625,0.40625 -1.14063,0 -1.5625,-0.40625 -0.42188,-0.40625 -0.42188,-1.51563 0,-1.125 0.42188,-1.53125 0.4375,-0.42187 1.59375,-0.42187 1.14062,0 1.54687,0.40625 0.42188,0.39062 0.42188,1.51562 z m 15.86718,7.07813 q 0,0.4375 -0.0312,0.73437 -0.0156,0.28125 -0.0781,0.45313 -0.0469,0.17187 -0.14063,0.26562 -0.0781,0.0781 -0.23437,0.0781 -0.15625,0 -0.39063,-0.0781 -0.21875,-0.0937 -0.5,-0.1875 -0.28125,-0.0937 -0.64062,-0.17187 -0.34375,-0.0781 -0.76563,-0.0781 -0.48437,0 -0.95312,0.20313 -0.46875,0.1875 -0.98438,0.64062 -0.51562,0.45313 -1.09375,1.20313 -0.5625,0.73437 -1.23437,1.8125 l 0,11.5625 q 0,0.15625 -0.0781,0.26562 -0.0781,0.0937 -0.26562,0.1875 -0.17188,0.0781 -0.48438,0.10938 -0.3125,0.0469 -0.79687,0.0469 -0.46875,0 -0.78125,-0.0469 -0.3125,-0.0312 -0.5,-0.10938 -0.1875,-0.0937 -0.26563,-0.1875 -0.0625,-0.10937 -0.0625,-0.26562 l 0,-17.57813 q 0,-0.15625 0.0625,-0.26562 0.0625,-0.10938 0.23438,-0.1875 0.17187,-0.0937 0.4375,-0.125 0.28125,-0.0312 0.73437,-0.0312 0.4375,0 0.71875,0.0312 0.28125,0.0312 0.4375,0.125 0.15625,0.0781 0.21875,0.1875 0.0781,0.10937 0.0781,0.26562 l 0,2.54688 q 0.71875,-1.04688 1.34375,-1.70313 0.64062,-0.67187 1.20312,-1.04687 0.57813,-0.39063 1.125,-0.53125 0.5625,-0.15625 1.125,-0.15625 0.25,0 0.57813,0.0312 0.32812,0.0312 0.67187,0.10937 0.35938,0.0781 0.64063,0.1875 0.28125,0.0937 0.39062,0.1875 0.125,0.0937 0.15625,0.1875 0.0469,0.0781 0.0781,0.21875 0.0312,0.14063 0.0312,0.40625 0.0156,0.26563 0.0156,0.70313 z m 20.02344,7.45312 q 0,2.14063 -0.57812,3.95313 -0.5625,1.79687 -1.6875,3.10937 -1.125,1.3125 -2.8125,2.04688 -1.6875,0.73437 -3.90625,0.73437 -2.17188,0 -3.78125,-0.64062 -1.60938,-0.65625 -2.6875,-1.875 -1.07813,-1.23438 -1.60938,-2.98438 -0.51562,-1.76562 -0.51562,-4 0,-2.14062 0.54687,-3.95312 0.5625,-1.8125 1.6875,-3.10938 1.125,-1.3125 2.79688,-2.03125 1.6875,-0.73437 3.92187,-0.73437 2.17188,0 3.78125,0.65625 1.60938,0.64062 2.6875,1.875 1.07813,1.21875 1.60938,2.98437 0.54687,1.75 0.54687,3.96875 z m -3.40625,0.20313 q 0,-1.42188 -0.26562,-2.6875 -0.26563,-1.26563 -0.875,-2.21875 -0.59375,-0.96875 -1.64063,-1.51563 -1.03125,-0.5625 -2.5625,-0.5625 -1.4375,0 -2.46875,0.51563 -1.01562,0.5 -1.6875,1.4375 -0.65625,0.92187 -0.98437,2.1875 -0.3125,1.26562 -0.3125,2.76562 0,1.45313 0.26562,2.71875 0.26563,1.26563 0.875,2.21875 0.60938,0.95313 1.64063,1.51563 1.04687,0.54687 2.59375,0.54687 1.40625,0 2.4375,-0.5 1.03125,-0.51562 1.6875,-1.4375 0.67187,-0.92187 0.98437,-2.1875 0.3125,-1.26562 0.3125,-2.79687 z m 23.28125,8.78125 q 0,0.15625 -0.0781,0.26562 -0.0781,0.0937 -0.25,0.1875 -0.17188,0.0781 -0.48438,0.10938 -0.3125,0.0469 -0.78125,0.0469 -0.5,0 -0.8125,-0.0469 -0.3125,-0.0312 -0.48437,-0.10938 -0.17188,-0.0937 -0.25,-0.1875 -0.0781,-0.10937 -0.0781,-0.26562 l 0,-10.29688 q 0,-1.5 -0.23437,-2.42187 -0.23438,-0.92188 -0.6875,-1.57813 -0.45313,-0.67187 -1.17188,-1.01562 -0.70312,-0.35938 -1.64062,-0.35938 -1.20313,0 -2.42188,0.85938 -1.20312,0.85937 -2.53125,2.51562 l 0,12.29688 q 0,0.15625 -0.0781,0.26562 -0.0781,0.0937 -0.26563,0.1875 -0.17187,0.0781 -0.48437,0.10938 -0.3125,0.0469 -0.79688,0.0469 -0.46875,0 -0.78125,-0.0469 -0.3125,-0.0312 -0.5,-0.10938 -0.1875,-0.0937 -0.26562,-0.1875 -0.0625,-0.10937 -0.0625,-0.26562 l 0,-17.57813 q 0,-0.15625 0.0625,-0.26562 0.0625,-0.10938 0.23437,-0.1875 0.17188,-0.0937 0.4375,-0.125 0.28125,-0.0312 0.73438,-0.0312 0.4375,0 0.71875,0.0312 0.28125,0.0312 0.4375,0.125 0.15625,0.0781 0.21875,0.1875 0.0781,0.10937 0.0781,0.26562 l 0,2.3125 q 1.48438,-1.65625 2.95313,-2.42187 1.46875,-0.78125 2.98437,-0.78125 1.75,0 2.95313,0.60937 1.20312,0.59375 1.9375,1.59375 0.75,0.98438 1.0625,2.32813 0.32812,1.32812 0.32812,3.20312 l 0,10.73438 z m 31.95313,0 q 0,0.15625 -0.0781,0.26562 -0.0781,0.0937 -0.25,0.1875 -0.17187,0.0781 -0.48437,0.10938 -0.3125,0.0469 -0.78125,0.0469 -0.5,0 -0.8125,-0.0469 -0.3125,-0.0312 -0.5,-0.10938 -0.17188,-0.0937 -0.25,-0.1875 -0.0781,-0.10937 -0.0781,-0.26562 l 0,-10.6875 q 0,-1.10938 -0.20312,-2.03125 -0.1875,-0.92188 -0.625,-1.57813 -0.42188,-0.67187 -1.09375,-1.01562 -0.65625,-0.35938 -1.5625,-0.35938 -1.10938,0 -2.23438,0.85938 -1.125,0.85937 -2.46875,2.51562 l 0,12.29688 q 0,0.15625 -0.0781,0.26562 -0.0781,0.0937 -0.26563,0.1875 -0.1875,0.0781 -0.5,0.10938 -0.3125,0.0469 -0.78125,0.0469 -0.45312,0 -0.78125,-0.0469 -0.3125,-0.0312 -0.5,-0.10938 -0.1875,-0.0937 -0.25,-0.1875 -0.0625,-0.10937 -0.0625,-0.26562 l 0,-10.6875 q 0,-1.10938 -0.21875,-2.03125 -0.21875,-0.92188 -0.65625,-1.57813 -0.42187,-0.67187 -1.07812,-1.01562 -0.65625,-0.35938 -1.54688,-0.35938 -1.10937,0 -2.25,0.85938 -1.125,0.85937 -2.45312,2.51562 l 0,12.29688 q 0,0.15625 -0.0781,0.26562 -0.0781,0.0937 -0.26562,0.1875 -0.17188,0.0781 -0.48438,0.10938 -0.3125,0.0469 -0.79687,0.0469 -0.46875,0 -0.78125,-0.0469 -0.3125,-0.0312 -0.5,-0.10938 -0.1875,-0.0937 -0.26563,-0.1875 -0.0625,-0.10937 -0.0625,-0.26562 l 0,-17.57813 q 0,-0.15625 0.0625,-0.26562 0.0625,-0.10938 0.23438,-0.1875 0.17187,-0.0937 0.4375,-0.125 0.28125,-0.0312 0.73437,-0.0312 0.4375,0 0.71875,0.0312 0.28125,0.0312 0.4375,0.125 0.15625,0.0781 0.21875,0.1875 0.0781,0.10937 0.0781,0.26562 l 0,2.3125 q 1.48437,-1.65625 2.875,-2.42187 1.39062,-0.78125 2.82812,-0.78125 1.09375,0 1.95313,0.26562 0.875,0.25 1.53125,0.71875 0.67187,0.45313 1.14062,1.09375 0.46875,0.625 0.78125,1.40625 0.875,-0.95312 1.65625,-1.60937 0.79688,-0.67188 1.53125,-1.07813 0.73438,-0.42187 1.42188,-0.60937 0.70312,-0.1875 1.40625,-0.1875 1.70312,0 2.84375,0.60937 1.15625,0.59375 1.85937,1.59375 0.71875,0.98438 1.01563,2.32813 0.3125,1.32812 0.3125,2.8125 l 0,11.125 z m 20.875,-9.5625 q 0,0.76562 -0.375,1.09375 -0.375,0.3125 -0.875,0.3125 l -11.51563,0 q 0,1.46875 0.28125,2.64062 0.29688,1.17188 0.98438,2.01563 0.6875,0.84375 1.78125,1.29687 1.09375,0.4375 2.67187,0.4375 1.25,0 2.21875,-0.20312 0.98438,-0.20313 1.6875,-0.45313 0.71875,-0.26562 1.17188,-0.46875 0.46875,-0.20312 0.70312,-0.20312 0.14063,0 0.25,0.0781 0.10938,0.0625 0.15625,0.20313 0.0625,0.125 0.0937,0.375 0.0312,0.25 0.0312,0.59375 0,0.25 -0.0312,0.4375 -0.0156,0.1875 -0.0469,0.34375 -0.0156,0.14062 -0.0937,0.26562 -0.0625,0.10938 -0.17188,0.21875 -0.10937,0.10938 -0.64062,0.35938 -0.51563,0.23437 -1.35938,0.46875 -0.84375,0.23437 -1.95312,0.42187 -1.09375,0.1875 -2.34375,0.1875 -2.17188,0 -3.8125,-0.60937 -1.625,-0.60938 -2.73438,-1.79688 -1.10937,-1.1875 -1.6875,-2.98437 -0.5625,-1.79688 -0.5625,-4.1875 0,-2.26563 0.57813,-4.0625 0.59375,-1.8125 1.70312,-3.0625 1.10938,-1.26563 2.67188,-1.9375 1.5625,-0.6875 3.48437,-0.6875 2.07813,0 3.53125,0.67187 1.45313,0.65625 2.39063,1.78125 0.9375,1.125 1.375,2.64063 0.4375,1.51562 0.4375,3.23437 l 0,0.57813 z m -3.23438,-0.95313 q 0.0625,-2.53125 -1.125,-3.96875 -1.1875,-1.45312 -3.5,-1.45312 -1.20312,0 -2.10937,0.45312 -0.89063,0.4375 -1.5,1.1875 -0.59375,0.73438 -0.9375,1.71875 -0.32813,0.98438 -0.35938,2.0625 l 9.53125,0 z m 23.27735,10.51563 q 0,0.15625 -0.0781,0.26562 -0.0781,0.0937 -0.25,0.1875 -0.17187,0.0781 -0.48437,0.10938 -0.3125,0.0469 -0.78125,0.0469 -0.5,0 -0.8125,-0.0469 -0.3125,-0.0312 -0.48438,-0.10938 -0.17187,-0.0937 -0.25,-0.1875 -0.0781,-0.10937 -0.0781,-0.26562 l 0,-10.29688 q 0,-1.5 -0.23438,-2.42187 -0.23437,-0.92188 -0.6875,-1.57813 -0.45312,-0.67187 -1.17187,-1.01562 -0.70313,-0.35938 -1.64063,-0.35938 -1.20312,0 -2.42187,0.85938 -1.20313,0.85937 -2.53125,2.51562 l 0,12.29688 q 0,0.15625 -0.0781,0.26562 -0.0781,0.0937 -0.26562,0.1875 -0.17188,0.0781 -0.48438,0.10938 -0.3125,0.0469 -0.79687,0.0469 -0.46875,0 -0.78125,-0.0469 -0.3125,-0.0312 -0.5,-0.10938 -0.1875,-0.0937 -0.26563,-0.1875 -0.0625,-0.10937 -0.0625,-0.26562 l 0,-17.57813 q 0,-0.15625 0.0625,-0.26562 0.0625,-0.10938 0.23438,-0.1875 0.17187,-0.0937 0.4375,-0.125 0.28125,-0.0312 0.73437,-0.0312 0.4375,0 0.71875,0.0312 0.28125,0.0312 0.4375,0.125 0.15625,0.0781 0.21875,0.1875 0.0781,0.10937 0.0781,0.26562 l 0,2.3125 q 1.48437,-1.65625 2.95312,-2.42187 1.46875,-0.78125 2.98438,-0.78125 1.75,0 2.95312,0.60937 1.20313,0.59375 1.9375,1.59375 0.75,0.98438 1.0625,2.32813 0.32813,1.32812 0.32813,3.20312 l 0,10.73438 z m 15.01562,-1.29688 q 0,0.5625 -0.0781,0.90625 -0.0781,0.32813 -0.23438,0.48438 -0.15625,0.15625 -0.46875,0.29687 -0.3125,0.14063 -0.71875,0.21875 -0.39062,0.0937 -0.84375,0.14063 -0.4375,0.0625 -0.89062,0.0625 -1.375,0 -2.35938,-0.35938 -0.96875,-0.35937 -1.59375,-1.09375 -0.625,-0.73437 -0.90625,-1.85937 -0.28125,-1.125 -0.28125,-2.64063 l 0,-10.28125 -2.45312,0 q -0.29688,0 -0.48438,-0.3125 -0.17187,-0.3125 -0.17187,-1.01562 0,-0.35938 0.0469,-0.60938 0.0625,-0.26562 0.14063,-0.42187 0.0781,-0.17188 0.20312,-0.23438 0.125,-0.0781 0.28125,-0.0781 l 2.4375,0 0,-4.17188 q 0,-0.14062 0.0625,-0.25 0.0781,-0.125 0.26563,-0.20312 0.1875,-0.0937 0.5,-0.125 0.3125,-0.0469 0.78125,-0.0469 0.48437,0 0.79687,0.0469 0.3125,0.0312 0.48438,0.125 0.17187,0.0781 0.25,0.20312 0.0781,0.10938 0.0781,0.25 l 0,4.17188 4.51563,0 q 0.15625,0 0.26562,0.0781 0.125,0.0625 0.20313,0.23438 0.0937,0.15625 0.125,0.42187 0.0469,0.25 0.0469,0.60938 0,0.70312 -0.17187,1.01562 -0.17188,0.3125 -0.46875,0.3125 l -4.51563,0 0,9.8125 q 0,1.8125 0.53125,2.75 0.54688,0.92188 1.9375,0.92188 0.45313,0 0.79688,-0.0781 0.35937,-0.0937 0.625,-0.1875 0.28125,-0.10937 0.46875,-0.1875 0.20312,-0.0937 0.35937,-0.0937 0.0937,0 0.17188,0.0469 0.0937,0.0469 0.14062,0.1875 0.0469,0.14062 0.0781,0.375 0.0469,0.23437 0.0469,0.57812 z"
       id="path44"
       inkscape:connector-curvature="0"
       style="fill:#ffffff;fill-rule:nonzero" />
    <g
       id="g46"
       style="filter:url(#shadowFilter-p7.3)">
      <use
         xlink:href="#p7.3"
         transform="translate(0,2.4146982)"
         id="use48"
         x="0"
         y="0"
         width="100%"
         height="100%" />
    </g>
    <defs
       id="defs50">
      <filter
         id="shadowFilter-p7.3"
         filterUnits="userSpaceOnUse">
        <feGaussianBlur
           in="SourceAlpha"
           stdDeviation="1.3333334"
           result="blur"
           id="feGaussianBlur53" />
        <feComponentTransfer
           in="blur"
           id="feComponentTransfer55"
           style="color-interpolation-filters:sRGB">
          <feFuncR
             type="linear"
             slope="0"
             intercept="0.0"
             id="feFuncR57" />
          <feFuncG
             type="linear"
             slope="0"
             intercept="0.0"
             id="feFuncG59" />
          <feFuncB
             type="linear"
             slope="0"
             intercept="0.0"
             id="feFuncB61" />
          <feFuncA
             type="linear"
             slope="0.34901962"
             intercept="0"
             id="feFuncA63" />
        </feComponentTransfer>
      </filter>
    </defs>
    <g
       id="p7.3">
      <defs
         id="defs66">
        <linearGradient
           id="p7.4"
           gradientUnits="userSpaceOnUse"
           gradientTransform="scale(16.487192,16.487192)"
           spreadMethod="pad"
           x1="38.629986"
           y1="31.94449"
           x2="38.629986"
           y2="15.457299">
          <stop
             offset="0.0"
             stop-color="#5e437e"
             id="stop69" />
          <stop
             offset="0.8"
             stop-color="#7b58a6"
             id="stop71" />
          <stop
             offset="1.0"
             stop-color="#7b57a8"
             id="stop73" />
        </linearGradient>
      </defs>
      <path
         d="m 326.3791,254.84746 310.52087,0 0,271.8275 -310.52087,0 z"
         id="path75"
         inkscape:connector-curvature="0"
         style="fill:url(#linearGradient3413);fill-rule:evenodd" />
      <path
         stroke-miterlimit="400.0"
         d="m 326.3791,254.84746 310.52087,0 0,271.8275 -310.52087,0 z"
         id="path77"
         inkscape:connector-curvature="0"
         style="fill-rule:evenodd;stroke:#7d60a0;stroke-width:5.33333349;stroke-linecap:butt;stroke-miterlimit:400" />
    </g>
    <path
       d="m 326.3791,362.62796 310.52087,0 0,56.2666 -310.52087,0 z"
       id="path79"
       inkscape:connector-curvature="0"
       style="fill:#000000;fill-opacity:0;fill-rule:evenodd" />
    <path
       d="m 438.62585,387.28625 q 0,1.89062 -0.625,3.42187 -0.625,1.51563 -1.79687,2.59375 -1.15625,1.07813 -2.84375,1.67188 -1.6875,0.57812 -4.03125,0.57812 l -2.875,0 0,9.09375 q 0,0.15625 -0.0937,0.28125 -0.0781,0.10938 -0.26563,0.1875 -0.1875,0.0625 -0.51562,0.10938 -0.3125,0.0625 -0.79688,0.0625 -0.5,0 -0.82812,-0.0625 -0.3125,-0.0469 -0.51563,-0.10938 -0.1875,-0.0781 -0.26562,-0.1875 -0.0781,-0.125 -0.0781,-0.28125 l 0,-23.3125 q 0,-0.78125 0.40625,-1.10937 0.42188,-0.34375 0.92188,-0.34375 l 5.40625,0 q 0.82812,0 1.57812,0.0781 0.75,0.0625 1.76563,0.29688 1.03125,0.21875 2.09375,0.84375 1.07812,0.60937 1.8125,1.51562 0.75,0.89063 1.14062,2.07813 0.40625,1.17187 0.40625,2.59375 z m -3.53125,0.28125 q 0,-1.54688 -0.57812,-2.57813 -0.57813,-1.04687 -1.4375,-1.54687 -0.84375,-0.51563 -1.75,-0.64063 -0.90625,-0.14062 -1.76563,-0.14062 l -3.10937,0 0,10.14062 3.03125,0 q 1.51562,0 2.51562,-0.39062 1.01563,-0.39063 1.70313,-1.07813 0.6875,-0.70312 1.03125,-1.67187 0.35937,-0.96875 0.35937,-2.09375 z m 18.57031,0.67187 q 0,0.4375 -0.0312,0.73438 -0.0156,0.28125 -0.0781,0.45312 -0.0469,0.17188 -0.14063,0.26563 -0.0781,0.0781 -0.23437,0.0781 -0.15625,0 -0.39063,-0.0781 -0.21875,-0.0937 -0.5,-0.1875 -0.28125,-0.0937 -0.64062,-0.17188 -0.34375,-0.0781 -0.76563,-0.0781 -0.48437,0 -0.95312,0.20312 -0.46875,0.1875 -0.98438,0.64063 -0.51562,0.45312 -1.09375,1.20312 -0.5625,0.73438 -1.23437,1.8125 l 0,11.5625 q 0,0.15625 -0.0781,0.26563 -0.0781,0.0937 -0.26562,0.1875 -0.17188,0.0781 -0.48438,0.10937 -0.3125,0.0469 -0.79687,0.0469 -0.46875,0 -0.78125,-0.0469 -0.3125,-0.0312 -0.5,-0.10937 -0.1875,-0.0937 -0.26563,-0.1875 -0.0625,-0.10938 -0.0625,-0.26563 l 0,-17.57812 q 0,-0.15625 0.0625,-0.26563 0.0625,-0.10937 0.23438,-0.1875 0.17187,-0.0937 0.4375,-0.125 0.28125,-0.0312 0.73437,-0.0312 0.4375,0 0.71875,0.0312 0.28125,0.0312 0.4375,0.125 0.15625,0.0781 0.21875,0.1875 0.0781,0.10938 0.0781,0.26563 l 0,2.54687 q 0.71875,-1.04687 1.34375,-1.70312 0.64062,-0.67188 1.20312,-1.04688 0.57813,-0.39062 1.125,-0.53125 0.5625,-0.15625 1.125,-0.15625 0.25,0 0.57813,0.0312 0.32812,0.0312 0.67187,0.10938 0.35938,0.0781 0.64063,0.1875 0.28125,0.0937 0.39062,0.1875 0.125,0.0937 0.15625,0.1875 0.0469,0.0781 0.0781,0.21875 0.0312,0.14062 0.0312,0.40625 0.0156,0.26562 0.0156,0.70312 z m 20.02344,7.45313 q 0,2.14062 -0.57812,3.95312 -0.5625,1.79688 -1.6875,3.10938 -1.125,1.3125 -2.8125,2.04687 -1.6875,0.73438 -3.90625,0.73438 -2.17188,0 -3.78125,-0.64063 -1.60938,-0.65625 -2.6875,-1.875 -1.07813,-1.23437 -1.60938,-2.98437 -0.51562,-1.76563 -0.51562,-4 0,-2.14063 0.54687,-3.95313 0.5625,-1.8125 1.6875,-3.10937 1.125,-1.3125 2.79688,-2.03125 1.6875,-0.73438 3.92187,-0.73438 2.17188,0 3.78125,0.65625 1.60938,0.64063 2.6875,1.875 1.07813,1.21875 1.60938,2.98438 0.54687,1.75 0.54687,3.96875 z m -3.40625,0.20312 q 0,-1.42187 -0.26562,-2.6875 -0.26563,-1.26562 -0.875,-2.21875 -0.59375,-0.96875 -1.64063,-1.51562 -1.03125,-0.5625 -2.5625,-0.5625 -1.4375,0 -2.46875,0.51562 -1.01562,0.5 -1.6875,1.4375 -0.65625,0.92188 -0.98437,2.1875 -0.3125,1.26563 -0.3125,2.76563 0,1.45312 0.26562,2.71875 0.26563,1.26562 0.875,2.21875 0.60938,0.95312 1.64063,1.51562 1.04687,0.54688 2.59375,0.54688 1.40625,0 2.4375,-0.5 1.03125,-0.51563 1.6875,-1.4375 0.67187,-0.92188 0.98437,-2.1875 0.3125,-1.26563 0.3125,-2.79688 z m 20.78125,6.09375 q 0,0.34375 -0.0156,0.59375 -0.0156,0.23438 -0.0781,0.40625 -0.0469,0.15625 -0.10937,0.28125 -0.0625,0.125 -0.3125,0.375 -0.25,0.25 -0.84375,0.60938 -0.57813,0.35937 -1.3125,0.64062 -0.71875,0.28125 -1.57813,0.45313 -0.85937,0.1875 -1.78125,0.1875 -1.89062,0 -3.35937,-0.625 -1.46875,-0.625 -2.45313,-1.82813 -0.98437,-1.20312 -1.5,-2.95312 -0.51562,-1.75 -0.51562,-4.03125 0,-2.59375 0.625,-4.45313 0.64062,-1.875 1.73437,-3.0625 1.10938,-1.20312 2.59375,-1.76562 1.5,-0.57813 3.25,-0.57813 0.82813,0 1.625,0.15625 0.79688,0.15625 1.45313,0.40625 0.67187,0.25 1.1875,0.59375 0.51562,0.32813 0.75,0.5625 0.23437,0.23438 0.3125,0.375 0.0937,0.125 0.15625,0.3125 0.0625,0.1875 0.0781,0.42188 0.0156,0.23437 0.0156,0.57812 0,0.76563 -0.17188,1.07813 -0.17187,0.29687 -0.4375,0.29687 -0.28125,0 -0.67187,-0.3125 -0.375,-0.32812 -0.96875,-0.71875 -0.57813,-0.39062 -1.40625,-0.71875 -0.82813,-0.32812 -1.96875,-0.32812 -2.32813,0 -3.5625,1.79687 -1.23438,1.78125 -1.23438,5.1875 0,1.6875 0.3125,2.96875 0.32813,1.28125 0.95313,2.14063 0.625,0.85937 1.53125,1.28125 0.90625,0.42187 2.07812,0.42187 1.10938,0 1.95313,-0.34375 0.84375,-0.35937 1.45312,-0.78125 0.625,-0.42187 1.03125,-0.76562 0.42188,-0.34375 0.65625,-0.34375 0.14063,0 0.23438,0.0781 0.10937,0.0781 0.17187,0.26563 0.0625,0.1875 0.0937,0.46875 0.0312,0.28125 0.0312,0.67187 z m 19.27344,-6.875 q 0,0.76563 -0.375,1.09375 -0.375,0.3125 -0.875,0.3125 l -11.51563,0 q 0,1.46875 0.28125,2.64063 0.29688,1.17187 0.98438,2.01562 0.6875,0.84375 1.78125,1.29688 1.09375,0.4375 2.67187,0.4375 1.25,0 2.21875,-0.20313 0.98438,-0.20312 1.6875,-0.45312 0.71875,-0.26563 1.17188,-0.46875 0.46875,-0.20313 0.70312,-0.20313 0.14063,0 0.25,0.0781 0.10938,0.0625 0.15625,0.20312 0.0625,0.125 0.0937,0.375 0.0312,0.25 0.0312,0.59375 0,0.25 -0.0312,0.4375 -0.0156,0.1875 -0.0469,0.34375 -0.0156,0.14063 -0.0937,0.26563 -0.0625,0.10937 -0.17188,0.21875 -0.10937,0.10937 -0.64062,0.35937 -0.51563,0.23438 -1.35938,0.46875 -0.84375,0.23438 -1.95312,0.42188 -1.09375,0.1875 -2.34375,0.1875 -2.17188,0 -3.8125,-0.60938 -1.625,-0.60937 -2.73438,-1.79687 -1.10937,-1.1875 -1.6875,-2.98438 -0.5625,-1.79687 -0.5625,-4.1875 0,-2.26562 0.57813,-4.0625 0.59375,-1.8125 1.70312,-3.0625 1.10938,-1.26562 2.67188,-1.9375 1.5625,-0.6875 3.48437,-0.6875 2.07813,0 3.53125,0.67188 1.45313,0.65625 2.39063,1.78125 0.9375,1.125 1.375,2.64062 0.4375,1.51563 0.4375,3.23438 l 0,0.57812 z m -3.23438,-0.95312 q 0.0625,-2.53125 -1.125,-3.96875 -1.1875,-1.45313 -3.5,-1.45313 -1.20312,0 -2.10937,0.45313 -0.89063,0.4375 -1.5,1.1875 -0.59375,0.73437 -0.9375,1.71875 -0.32813,0.98437 -0.35938,2.0625 l 9.53125,0 z m 19.1836,5.71875 q 0,1.35937 -0.5,2.42187 -0.5,1.04688 -1.42188,1.76563 -0.92187,0.71875 -2.1875,1.09375 -1.26562,0.375 -2.79687,0.375 -0.9375,0 -1.78125,-0.15625 -0.84375,-0.14063 -1.53125,-0.35938 -0.67188,-0.23437 -1.14063,-0.46875 -0.46875,-0.25 -0.6875,-0.4375 -0.20312,-0.20312 -0.3125,-0.54687 -0.0937,-0.35938 -0.0937,-0.96875 0,-0.375 0.0312,-0.625 0.0469,-0.25 0.10938,-0.40625 0.0625,-0.15625 0.17187,-0.21875 0.10938,-0.0781 0.23438,-0.0781 0.21875,0 0.64062,0.26563 0.42188,0.26562 1.03125,0.57812 0.625,0.3125 1.45313,0.57813 0.84375,0.26562 1.9375,0.26562 0.82812,0 1.48437,-0.17187 0.67188,-0.1875 1.15625,-0.53125 0.48438,-0.34375 0.75,-0.85938 0.26563,-0.53125 0.26563,-1.25 0,-0.75 -0.39063,-1.25 -0.375,-0.51562 -1,-0.90625 -0.625,-0.39062 -1.40625,-0.6875 -0.78125,-0.3125 -1.60937,-0.64062 -0.82813,-0.32813 -1.625,-0.75 -0.78125,-0.42188 -1.40625,-1.01563 -0.625,-0.60937 -1.01563,-1.45312 -0.375,-0.84375 -0.375,-2.01563 0,-1.03125 0.39063,-1.96875 0.40625,-0.95312 1.20312,-1.67187 0.8125,-0.71875 2,-1.14063 1.20313,-0.4375 2.8125,-0.4375 0.70313,0 1.40625,0.125 0.70313,0.10938 1.26563,0.29688 0.5625,0.17187 0.96875,0.375 0.40625,0.20312 0.60937,0.35937 0.20313,0.15625 0.26563,0.28125 0.0781,0.10938 0.0937,0.26563 0.0312,0.14062 0.0625,0.35937 0.0312,0.20313 0.0312,0.51563 0,0.34375 -0.0312,0.59375 -0.0312,0.23437 -0.0937,0.39062 -0.0625,0.15625 -0.17188,0.23438 -0.0937,0.0625 -0.20312,0.0625 -0.1875,0 -0.51563,-0.21875 -0.32812,-0.21875 -0.85937,-0.45313 -0.53125,-0.25 -1.25,-0.46875 -0.70313,-0.21875 -1.625,-0.21875 -0.8125,0 -1.4375,0.1875 -0.625,0.1875 -1.03125,0.53125 -0.39063,0.34375 -0.60938,0.8125 -0.20312,0.46875 -0.20312,1.01563 0,0.76562 0.39062,1.28125 0.39063,0.51562 1.01563,0.90625 0.625,0.39062 1.42187,0.70312 0.8125,0.3125 1.64063,0.64063 0.82812,0.32812 1.64062,0.75 0.8125,0.40625 1.4375,1 0.625,0.57812 1,1.40625 0.39063,0.8125 0.39063,1.9375 z m 15.64453,0 q 0,1.35937 -0.5,2.42187 -0.5,1.04688 -1.42188,1.76563 -0.92187,0.71875 -2.1875,1.09375 -1.26562,0.375 -2.79687,0.375 -0.9375,0 -1.78125,-0.15625 -0.84375,-0.14063 -1.53125,-0.35938 -0.67188,-0.23437 -1.14063,-0.46875 -0.46875,-0.25 -0.6875,-0.4375 -0.20312,-0.20312 -0.3125,-0.54687 -0.0937,-0.35938 -0.0937,-0.96875 0,-0.375 0.0312,-0.625 0.0469,-0.25 0.10938,-0.40625 0.0625,-0.15625 0.17187,-0.21875 0.10938,-0.0781 0.23438,-0.0781 0.21875,0 0.64062,0.26563 0.42188,0.26562 1.03125,0.57812 0.625,0.3125 1.45313,0.57813 0.84375,0.26562 1.9375,0.26562 0.82812,0 1.48437,-0.17187 0.67188,-0.1875 1.15625,-0.53125 0.48438,-0.34375 0.75,-0.85938 0.26563,-0.53125 0.26563,-1.25 0,-0.75 -0.39063,-1.25 -0.375,-0.51562 -1,-0.90625 -0.625,-0.39062 -1.40625,-0.6875 -0.78125,-0.3125 -1.60937,-0.64062 -0.82813,-0.32813 -1.625,-0.75 -0.78125,-0.42188 -1.40625,-1.01563 -0.625,-0.60937 -1.01563,-1.45312 -0.375,-0.84375 -0.375,-2.01563 0,-1.03125 0.39063,-1.96875 0.40625,-0.95312 1.20312,-1.67187 0.8125,-0.71875 2,-1.14063 1.20313,-0.4375 2.8125,-0.4375 0.70313,0 1.40625,0.125 0.70313,0.10938 1.26563,0.29688 0.5625,0.17187 0.96875,0.375 0.40625,0.20312 0.60937,0.35937 0.20313,0.15625 0.26563,0.28125 0.0781,0.10938 0.0937,0.26563 0.0312,0.14062 0.0625,0.35937 0.0312,0.20313 0.0312,0.51563 0,0.34375 -0.0312,0.59375 -0.0312,0.23437 -0.0937,0.39062 -0.0625,0.15625 -0.17188,0.23438 -0.0937,0.0625 -0.20312,0.0625 -0.1875,0 -0.51563,-0.21875 -0.32812,-0.21875 -0.85937,-0.45313 -0.53125,-0.25 -1.25,-0.46875 -0.70313,-0.21875 -1.625,-0.21875 -0.8125,0 -1.4375,0.1875 -0.625,0.1875 -1.03125,0.53125 -0.39063,0.34375 -0.60938,0.8125 -0.20312,0.46875 -0.20312,1.01563 0,0.76562 0.39062,1.28125 0.39063,0.51562 1.01563,0.90625 0.625,0.39062 1.42187,0.70312 0.8125,0.3125 1.64063,0.64063 0.82812,0.32812 1.64062,0.75 0.8125,0.40625 1.4375,1 0.625,0.57812 1,1.40625 0.39063,0.8125 0.39063,1.9375 z"
       id="path81"
       inkscape:connector-curvature="0"
       style="fill:#ffffff;fill-rule:nonzero" />
    <g
       id="g83"
       style="filter:url(#shadowFilter-p7.5)">
      <use
         xlink:href="#p7.5"
         transform="translate(0,2.0997375)"
         id="use85"
         x="0"
         y="0"
         width="100%"
         height="100%" />
    </g>
    <defs
       id="defs87">
      <filter
         id="shadowFilter-p7.5"
         filterUnits="userSpaceOnUse">
        <feGaussianBlur
           in="SourceAlpha"
           stdDeviation="1.3333334"
           result="blur"
           id="feGaussianBlur90" />
        <feComponentTransfer
           in="blur"
           id="feComponentTransfer92"
           style="color-interpolation-filters:sRGB">
          <feFuncR
             type="linear"
             slope="0"
             intercept="0.0"
             id="feFuncR94" />
          <feFuncG
             type="linear"
             slope="0"
             intercept="0.0"
             id="feFuncG96" />
          <feFuncB
             type="linear"
             slope="0"
             intercept="0.0"
             id="feFuncB98" />
          <feFuncA
             type="linear"
             slope="0.3764706"
             intercept="0"
             id="feFuncA100" />
        </feComponentTransfer>
      </filter>
    </defs>
    <g
       id="p7.5">
      <path
         d="m 11.934804,356.7257 226.520656,0 0,-32.63144 85.33354,66.66684 -85.33354,66.66681 0,-32.63141 -226.520656,0 z"
         id="path103"
         inkscape:connector-curvature="0"
         style="fill:#9bbb59;fill-rule:evenodd" />
      <path
         d="m 11.934804,356.7257 226.520656,0 0,-32.63144 85.33354,66.66684 -85.33354,66.66681 0,-32.63141 -226.520656,0 z"
         id="path105"
         inkscape:connector-curvature="0"
         style="fill-rule:evenodd;stroke:#ffffff;stroke-width:4;stroke-linecap:butt;stroke-linejoin:round" />
    </g>
    <path
       d="m 11.934698,371.96112 268.289122,0 0,37.59998 -268.289122,0 z"
       id="path107"
       inkscape:connector-curvature="0"
       style="fill:#000000;fill-opacity:0;fill-rule:evenodd" />
    <path
       d="m 119.46012,398.98862 q 0,0.0937 -0.0469,0.17188 -0.0469,0.0625 -0.17188,0.10937 -0.10937,0.0469 -0.3125,0.0781 -0.1875,0.0312 -0.46875,0.0312 -0.28125,0 -0.48437,-0.0312 -0.20313,-0.0312 -0.32813,-0.0781 -0.10937,-0.0469 -0.15625,-0.10937 -0.0469,-0.0781 -0.0469,-0.17188 l 0,-14.54687 q 0,-0.0937 0.0469,-0.15625 0.0625,-0.0781 0.1875,-0.10938 0.125,-0.0469 0.3125,-0.0781 0.1875,-0.0312 0.46875,-0.0312 0.28125,0 0.46875,0.0312 0.20313,0.0312 0.3125,0.0781 0.125,0.0312 0.17188,0.10938 0.0469,0.0625 0.0469,0.15625 l 0,14.54687 z m 12.89062,0.0156 q 0,0.0937 -0.0469,0.15625 -0.0469,0.0625 -0.15625,0.125 -0.0937,0.0469 -0.28125,0.0625 -0.1875,0.0312 -0.46875,0.0312 -0.29687,0 -0.48437,-0.0312 -0.1875,-0.0156 -0.29688,-0.0625 -0.10937,-0.0625 -0.15625,-0.125 -0.0469,-0.0625 -0.0469,-0.15625 l 0,-6.17188 q 0,-0.90625 -0.14063,-1.45312 -0.14062,-0.54688 -0.40625,-0.9375 -0.26562,-0.40625 -0.70312,-0.60938 -0.42188,-0.21875 -0.98438,-0.21875 -0.71874,0 -1.45312,0.51563 -0.71875,0.51562 -1.51562,1.5 l 0,7.375 q 0,0.0937 -0.0469,0.15625 -0.0469,0.0625 -0.15625,0.125 -0.10937,0.0469 -0.29687,0.0625 -0.1875,0.0312 -0.48438,0.0312 -0.28125,0 -0.46875,-0.0312 -0.1875,-0.0156 -0.29687,-0.0625 -0.10938,-0.0625 -0.15625,-0.125 -0.0312,-0.0625 -0.0312,-0.15625 l 0,-10.54688 q 0,-0.0937 0.0312,-0.15625 0.0312,-0.0625 0.14062,-0.10937 0.10938,-0.0625 0.26563,-0.0781 0.17187,-0.0156 0.4375,-0.0156 0.26562,0 0.42187,0.0156 0.17188,0.0156 0.26563,0.0781 0.0937,0.0469 0.14062,0.10937 0.0469,0.0625 0.0469,0.15625 l 0,1.39063 q 0.89062,-0.98438 1.76562,-1.45313 0.89063,-0.46875 1.79687,-0.46875 1.04688,0 1.76563,0.35938 0.71875,0.35937 1.15625,0.96875 0.45312,0.59375 0.64062,1.39062 0.20313,0.79688 0.20313,1.92188 l 0,6.4375 z m 13.23437,-5.4375 q 0,1.39062 -0.29687,2.5 -0.29688,1.09375 -0.89063,1.85937 -0.57812,0.76563 -1.4375,1.1875 -0.84375,0.40625 -1.95312,0.40625 -0.46875,0 -0.875,-0.0937 -0.39063,-0.0937 -0.76563,-0.28125 -0.375,-0.20312 -0.75,-0.5 -0.375,-0.3125 -0.79687,-0.73437 l 0,5.28125 q 0,0.0937 -0.0469,0.15625 -0.0469,0.0781 -0.15625,0.125 -0.10937,0.0469 -0.29687,0.0625 -0.1875,0.0312 -0.48438,0.0312 -0.28125,0 -0.46875,-0.0312 -0.1875,-0.0156 -0.29687,-0.0625 -0.10938,-0.0469 -0.15625,-0.125 -0.0312,-0.0625 -0.0312,-0.15625 l 0,-14.73438 q 0,-0.10937 0.0312,-0.17187 0.0312,-0.0625 0.14062,-0.10938 0.10938,-0.0469 0.26563,-0.0625 0.17187,-0.0156 0.40625,-0.0156 0.25,0 0.40625,0.0156 0.15625,0.0156 0.25,0.0625 0.10937,0.0469 0.15625,0.10938 0.0469,0.0625 0.0469,0.17187 l 0,1.42188 q 0.46875,-0.5 0.90625,-0.85938 0.45313,-0.35937 0.90625,-0.59375 0.45313,-0.25 0.92188,-0.375 0.48437,-0.125 1.01562,-0.125 1.14063,0 1.95313,0.45313 0.8125,0.4375 1.3125,1.21875 0.51562,0.76562 0.75,1.79687 0.23437,1.03125 0.23437,2.17188 z m -2.04687,0.21875 q 0,-0.79688 -0.125,-1.54688 -0.10938,-0.76562 -0.42188,-1.34375 -0.29687,-0.59375 -0.79687,-0.9375 -0.5,-0.35937 -1.25,-0.35937 -0.375,0 -0.75,0.10937 -0.35938,0.10938 -0.73438,0.35938 -0.375,0.23437 -0.78125,0.625 -0.40625,0.39062 -0.85937,0.96875 l 0,4.1875 q 0.79687,0.98437 1.5,1.5 0.71875,0.51562 1.5,0.51562 0.73437,0 1.25,-0.34375 0.53125,-0.35937 0.84375,-0.9375 0.32812,-0.59375 0.46875,-1.3125 0.15625,-0.73437 0.15625,-1.48437 z m 13.98437,5.21875 q 0,0.0937 -0.0469,0.15625 -0.0312,0.0625 -0.14063,0.125 -0.10937,0.0469 -0.28125,0.0625 -0.15625,0.0312 -0.40625,0.0312 -0.26562,0 -0.4375,-0.0312 -0.17187,-0.0156 -0.28125,-0.0625 -0.0937,-0.0625 -0.125,-0.125 -0.0312,-0.0625 -0.0312,-0.15625 l 0,-1.39063 q -0.90625,1 -1.79687,1.45313 -0.875,0.45312 -1.76563,0.45312 -1.0625,0 -1.78125,-0.34375 -0.71875,-0.35937 -1.17187,-0.95312 -0.4375,-0.60938 -0.64063,-1.40625 -0.1875,-0.8125 -0.1875,-1.95313 l 0,-6.40625 q 0,-0.0937 0.0312,-0.15625 0.0469,-0.0625 0.15625,-0.10937 0.125,-0.0625 0.3125,-0.0781 0.1875,-0.0156 0.46875,-0.0156 0.28125,0 0.46875,0.0156 0.1875,0.0156 0.29688,0.0781 0.125,0.0469 0.17187,0.10937 0.0469,0.0625 0.0469,0.15625 l 0,6.14063 q 0,0.92187 0.125,1.48437 0.14062,0.5625 0.40625,0.95313 0.28125,0.39062 0.70312,0.60937 0.42188,0.21875 0.98438,0.21875 0.73437,0 1.45312,-0.51562 0.71875,-0.51563 1.53125,-1.51563 l 0,-7.375 q 0,-0.0937 0.0312,-0.15625 0.0469,-0.0625 0.15625,-0.10937 0.125,-0.0625 0.29688,-0.0781 0.1875,-0.0156 0.48437,-0.0156 0.28125,0 0.46875,0.0156 0.1875,0.0156 0.28125,0.0781 0.10938,0.0469 0.15625,0.10937 0.0625,0.0625 0.0625,0.15625 l 0,10.54688 z m 9.0625,-0.76563 q 0,0.32813 -0.0469,0.53125 -0.0469,0.20313 -0.14063,0.29688 -0.0937,0.0937 -0.28125,0.1875 -0.1875,0.0781 -0.4375,0.125 -0.23437,0.0469 -0.5,0.0781 -0.26562,0.0469 -0.54687,0.0469 -0.8125,0 -1.40625,-0.21875 -0.57813,-0.21875 -0.95313,-0.65625 -0.375,-0.4375 -0.54687,-1.10938 -0.17188,-0.6875 -0.17188,-1.59375 l 0,-6.17187 -1.46875,0 q -0.1875,0 -0.29687,-0.1875 -0.0937,-0.1875 -0.0937,-0.60938 0,-0.21875 0.0312,-0.35937 0.0312,-0.15625 0.0781,-0.25 0.0469,-0.10938 0.10938,-0.14063 0.0781,-0.0469 0.17187,-0.0469 l 1.46875,0 0,-2.51563 q 0,-0.0781 0.0312,-0.14062 0.0469,-0.0781 0.15625,-0.125 0.125,-0.0625 0.3125,-0.0781 0.1875,-0.0312 0.46875,-0.0312 0.28125,0 0.46875,0.0312 0.1875,0.0156 0.29688,0.0781 0.10937,0.0469 0.15625,0.125 0.0469,0.0625 0.0469,0.14062 l 0,2.51563 2.70313,0 q 0.0937,0 0.15625,0.0469 0.0781,0.0312 0.125,0.14063 0.0625,0.0937 0.0781,0.25 0.0312,0.14062 0.0312,0.35937 0,0.42188 -0.10937,0.60938 -0.10938,0.1875 -0.28125,0.1875 l -2.70313,0 0,5.89062 q 0,1.09375 0.3125,1.65625 0.32813,0.54688 1.15625,0.54688 0.28125,0 0.48438,-0.0469 0.21875,-0.0625 0.375,-0.10937 0.17187,-0.0625 0.28125,-0.10938 0.125,-0.0625 0.21875,-0.0625 0.0469,0 0.0937,0.0312 0.0625,0.0312 0.0937,0.10938 0.0312,0.0781 0.0469,0.21875 0.0312,0.14062 0.0312,0.35937 z m 9.17969,-2.10937 q 0,0.8125 -0.3125,1.45312 -0.29688,0.625 -0.84375,1.0625 -0.54688,0.4375 -1.3125,0.65625 -0.76563,0.21875 -1.67188,0.21875 -0.5625,0 -1.07812,-0.0937 -0.5,-0.0781 -0.90625,-0.20312 -0.40625,-0.14063 -0.6875,-0.28125 -0.28125,-0.15625 -0.42188,-0.26563 -0.125,-0.125 -0.1875,-0.32812 -0.0469,-0.21875 -0.0469,-0.57813 0,-0.23437 0.0156,-0.375 0.0312,-0.15625 0.0625,-0.25 0.0312,-0.0937 0.0937,-0.125 0.0781,-0.0469 0.15625,-0.0469 0.125,0 0.375,0.15625 0.25,0.15625 0.625,0.34375 0.375,0.1875 0.875,0.34375 0.5,0.15625 1.15625,0.15625 0.5,0 0.89063,-0.0937 0.40625,-0.10938 0.6875,-0.3125 0.29687,-0.21875 0.45312,-0.53125 0.15625,-0.3125 0.15625,-0.75 0,-0.4375 -0.23437,-0.73438 -0.21875,-0.3125 -0.59375,-0.54687 -0.375,-0.23438 -0.84375,-0.42188 -0.46875,-0.1875 -0.96875,-0.375 -0.5,-0.20312 -0.96875,-0.45312 -0.46875,-0.25 -0.84375,-0.60938 -0.375,-0.375 -0.60938,-0.875 -0.23437,-0.5 -0.23437,-1.20312 0,-0.625 0.23437,-1.1875 0.25,-0.57813 0.73438,-1 0.48437,-0.4375 1.20312,-0.6875 0.71875,-0.26563 1.67188,-0.26563 0.42187,0 0.84375,0.0781 0.42187,0.0625 0.76562,0.17187 0.34375,0.10938 0.57813,0.23438 0.25,0.125 0.35937,0.21875 0.125,0.0937 0.17188,0.17187 0.0469,0.0625 0.0625,0.15625 0.0156,0.0781 0.0312,0.20313 0.0156,0.125 0.0156,0.3125 0,0.20312 -0.0156,0.35937 -0.0156,0.14063 -0.0625,0.23438 -0.0312,0.0937 -0.0937,0.14062 -0.0625,0.0312 -0.125,0.0312 -0.10938,0 -0.3125,-0.125 -0.20313,-0.125 -0.51563,-0.26562 -0.3125,-0.15625 -0.75,-0.28125 -0.42187,-0.14063 -0.96875,-0.14063 -0.5,0 -0.875,0.125 -0.375,0.10938 -0.60937,0.3125 -0.23438,0.20313 -0.35938,0.48438 -0.125,0.28125 -0.125,0.60937 0,0.45313 0.23438,0.76563 0.23437,0.3125 0.60937,0.54687 0.375,0.23438 0.84375,0.42188 0.48438,0.1875 0.98438,0.39062 0.5,0.1875 0.98437,0.4375 0.48438,0.25 0.85938,0.60938 0.375,0.34375 0.60937,0.84375 0.23438,0.48437 0.23438,1.15625 z"
       id="path109"
       inkscape:connector-curvature="0"
       style="fill:#ffffff;fill-rule:nonzero" />
    <g
       id="g111"
       style="filter:url(#shadowFilter-p7.6)">
      <use
         xlink:href="#p7.6"
         transform="translate(0,2.0997375)"
         id="use113"
         x="0"
         y="0"
         width="100%"
         height="100%" />
    </g>
    <defs
       id="defs115">
      <filter
         id="shadowFilter-p7.6"
         filterUnits="userSpaceOnUse">
        <feGaussianBlur
           in="SourceAlpha"
           stdDeviation="1.3333334"
           result="blur"
           id="feGaussianBlur118" />
        <feComponentTransfer
           in="blur"
           id="feComponentTransfer120"
           style="color-interpolation-filters:sRGB">
          <feFuncR
             type="linear"
             slope="0"
             intercept="0.0"
             id="feFuncR122" />
          <feFuncG
             type="linear"
             slope="0"
             intercept="0.0"
             id="feFuncG124" />
          <feFuncB
             type="linear"
             slope="0"
             intercept="0.0"
             id="feFuncB126" />
          <feFuncA
             type="linear"
             slope="0.3764706"
             intercept="0"
             id="feFuncA128" />
        </feComponentTransfer>
      </filter>
    </defs>
    <g
       id="p7.6">
      <path
         d="m 639.4902,356.7257 226.52057,0 0,-32.63144 85.33356,66.66684 -85.33356,66.66681 0,-32.63141 -226.52057,0 z"
         id="path131"
         inkscape:connector-curvature="0"
         style="fill:#9bbb59;fill-rule:evenodd" />
      <path
         d="m 639.4902,356.7257 226.52057,0 0,-32.63144 85.33356,66.66684 -85.33356,66.66681 0,-32.63141 -226.52057,0 z"
         id="path133"
         inkscape:connector-curvature="0"
         style="fill-rule:evenodd;stroke:#ffffff;stroke-width:4;stroke-linecap:butt;stroke-linejoin:round" />
    </g>
    <path
       d="m 639.4901,371.96112 268.289,0 0,37.59998 -268.289,0 z"
       id="path135"
       inkscape:connector-curvature="0"
       style="fill:#000000;fill-opacity:0;fill-rule:evenodd" />
    <path
       d="m 748.76154,391.5355 q 0,1.84375 -0.4375,3.32813 -0.42188,1.46875 -1.29688,2.51562 -0.85937,1.03125 -2.15625,1.59375 -1.29687,0.54688 -3.03125,0.54688 -1.71875,0 -2.96875,-0.5 -1.23437,-0.51563 -2.0625,-1.48438 -0.8125,-0.98437 -1.21875,-2.42187 -0.39062,-1.4375 -0.39062,-3.3125 0,-1.79688 0.4375,-3.25 0.4375,-1.46875 1.29687,-2.5 0.875,-1.03125 2.17188,-1.57813 1.29687,-0.5625 3.03125,-0.5625 1.6875,0 2.92187,0.51563 1.25,0.5 2.0625,1.46875 0.82813,0.95312 1.23438,2.39062 0.40625,1.42188 0.40625,3.25 z m -2.125,0.14063 q 0,-1.28125 -0.23438,-2.39063 -0.21875,-1.10937 -0.75,-1.92187 -0.53125,-0.8125 -1.42187,-1.26563 -0.89063,-0.46875 -2.20313,-0.46875 -1.3125,0 -2.20312,0.5 -0.89063,0.48438 -1.45313,1.3125 -0.54687,0.8125 -0.79687,1.92188 -0.23438,1.09375 -0.23438,2.29687 0,1.32813 0.21875,2.45313 0.21875,1.125 0.75,1.95312 0.53125,0.8125 1.40625,1.26563 0.89063,0.4375 2.23438,0.4375 1.3125,0 2.21875,-0.48438 0.90625,-0.5 1.45312,-1.32812 0.54688,-0.84375 0.78125,-1.9375 0.23438,-1.10938 0.23438,-2.34375 z m 14.125,7.32812 q 0,0.0937 -0.0469,0.15625 -0.0312,0.0625 -0.14062,0.125 -0.10938,0.0469 -0.28125,0.0625 -0.15625,0.0312 -0.40625,0.0312 -0.26563,0 -0.4375,-0.0312 -0.17188,-0.0156 -0.28125,-0.0625 -0.0937,-0.0625 -0.125,-0.125 -0.0312,-0.0625 -0.0312,-0.15625 l 0,-1.39062 q -0.90625,1 -1.79688,1.45312 -0.875,0.45313 -1.76562,0.45313 -1.0625,0 -1.78125,-0.34375 -0.71875,-0.35938 -1.17188,-0.95313 -0.4375,-0.60937 -0.64062,-1.40625 -0.1875,-0.8125 -0.1875,-1.95312 l 0,-6.40625 q 0,-0.0937 0.0312,-0.15625 0.0469,-0.0625 0.15625,-0.10938 0.125,-0.0625 0.3125,-0.0781 0.1875,-0.0156 0.46875,-0.0156 0.28125,0 0.46875,0.0156 0.1875,0.0156 0.29687,0.0781 0.125,0.0469 0.17188,0.10938 0.0469,0.0625 0.0469,0.15625 l 0,6.14062 q 0,0.92188 0.125,1.48438 0.14063,0.5625 0.40625,0.95312 0.28125,0.39063 0.70313,0.60938 0.42187,0.21875 0.98437,0.21875 0.73438,0 1.45313,-0.51563 0.71875,-0.51562 1.53125,-1.51562 l 0,-7.375 q 0,-0.0937 0.0312,-0.15625 0.0469,-0.0625 0.15625,-0.10938 0.125,-0.0625 0.29687,-0.0781 0.1875,-0.0156 0.48438,-0.0156 0.28125,0 0.46875,0.0156 0.1875,0.0156 0.28125,0.0781 0.10937,0.0469 0.15625,0.10938 0.0625,0.0625 0.0625,0.15625 l 0,10.54687 z m 9.0625,-0.76562 q 0,0.32812 -0.0469,0.53125 -0.0469,0.20312 -0.14062,0.29687 -0.0937,0.0937 -0.28125,0.1875 -0.1875,0.0781 -0.4375,0.125 -0.23438,0.0469 -0.5,0.0781 -0.26563,0.0469 -0.54688,0.0469 -0.8125,0 -1.40625,-0.21875 -0.57812,-0.21875 -0.95312,-0.65625 -0.375,-0.4375 -0.54688,-1.10937 -0.17187,-0.6875 -0.17187,-1.59375 l 0,-6.17188 -1.46875,0 q -0.1875,0 -0.29688,-0.1875 -0.0937,-0.1875 -0.0937,-0.60937 0,-0.21875 0.0312,-0.35938 0.0312,-0.15625 0.0781,-0.25 0.0469,-0.10937 0.10937,-0.14062 0.0781,-0.0469 0.17188,-0.0469 l 1.46875,0 0,-2.51562 q 0,-0.0781 0.0312,-0.14063 0.0469,-0.0781 0.15625,-0.125 0.125,-0.0625 0.3125,-0.0781 0.1875,-0.0312 0.46875,-0.0312 0.28125,0 0.46875,0.0312 0.1875,0.0156 0.29687,0.0781 0.10938,0.0469 0.15625,0.125 0.0469,0.0625 0.0469,0.14063 l 0,2.51562 2.70312,0 q 0.0937,0 0.15625,0.0469 0.0781,0.0312 0.125,0.14062 0.0625,0.0937 0.0781,0.25 0.0312,0.14063 0.0312,0.35938 0,0.42187 -0.10938,0.60937 -0.10937,0.1875 -0.28125,0.1875 l -2.70312,0 0,5.89063 q 0,1.09375 0.3125,1.65625 0.32812,0.54687 1.15625,0.54687 0.28125,0 0.48437,-0.0469 0.21875,-0.0625 0.375,-0.10938 0.17188,-0.0625 0.28125,-0.10937 0.125,-0.0625 0.21875,-0.0625 0.0469,0 0.0937,0.0312 0.0625,0.0312 0.0937,0.10937 0.0312,0.0781 0.0469,0.21875 0.0312,0.14063 0.0312,0.35938 z m 12.25781,-4.67188 q 0,1.39063 -0.29687,2.5 -0.29688,1.09375 -0.89063,1.85938 -0.57812,0.76562 -1.4375,1.1875 -0.84375,0.40625 -1.95312,0.40625 -0.46875,0 -0.875,-0.0937 -0.39063,-0.0937 -0.76563,-0.28125 -0.375,-0.20313 -0.75,-0.5 -0.375,-0.3125 -0.79687,-0.73438 l 0,5.28125 q 0,0.0937 -0.0469,0.15625 -0.0469,0.0781 -0.15625,0.125 -0.10937,0.0469 -0.29687,0.0625 -0.1875,0.0312 -0.48438,0.0312 -0.28125,0 -0.46875,-0.0312 -0.1875,-0.0156 -0.29687,-0.0625 -0.10938,-0.0469 -0.15625,-0.125 -0.0312,-0.0625 -0.0312,-0.15625 l 0,-14.73437 q 0,-0.10938 0.0312,-0.17188 0.0312,-0.0625 0.14062,-0.10937 0.10938,-0.0469 0.26563,-0.0625 0.17187,-0.0156 0.40625,-0.0156 0.25,0 0.40625,0.0156 0.15625,0.0156 0.25,0.0625 0.10937,0.0469 0.15625,0.10937 0.0469,0.0625 0.0469,0.17188 l 0,1.42187 q 0.46875,-0.5 0.90625,-0.85937 0.45313,-0.35938 0.90625,-0.59375 0.45313,-0.25 0.92188,-0.375 0.48437,-0.125 1.01562,-0.125 1.14063,0 1.95313,0.45312 0.8125,0.4375 1.3125,1.21875 0.51562,0.76563 0.75,1.79688 0.23437,1.03125 0.23437,2.17187 z m -2.04687,0.21875 q 0,-0.79687 -0.125,-1.54687 -0.10938,-0.76563 -0.42188,-1.34375 -0.29687,-0.59375 -0.79687,-0.9375 -0.5,-0.35938 -1.25,-0.35938 -0.375,0 -0.75,0.10938 -0.35938,0.10937 -0.73438,0.35937 -0.375,0.23438 -0.78125,0.625 -0.40625,0.39063 -0.85937,0.96875 l 0,4.1875 q 0.79687,0.98438 1.5,1.5 0.71875,0.51563 1.5,0.51563 0.73437,0 1.25,-0.34375 0.53125,-0.35938 0.84375,-0.9375 0.32812,-0.59375 0.46875,-1.3125 0.15625,-0.73438 0.15625,-1.48438 z m 13.98437,5.21875 q 0,0.0937 -0.0469,0.15625 -0.0312,0.0625 -0.14063,0.125 -0.10937,0.0469 -0.28125,0.0625 -0.15625,0.0312 -0.40625,0.0312 -0.26562,0 -0.4375,-0.0312 -0.17187,-0.0156 -0.28125,-0.0625 -0.0937,-0.0625 -0.125,-0.125 -0.0312,-0.0625 -0.0312,-0.15625 l 0,-1.39062 q -0.90625,1 -1.79687,1.45312 -0.875,0.45313 -1.76563,0.45313 -1.0625,0 -1.78125,-0.34375 -0.71875,-0.35938 -1.17187,-0.95313 -0.4375,-0.60937 -0.64063,-1.40625 -0.1875,-0.8125 -0.1875,-1.95312 l 0,-6.40625 q 0,-0.0937 0.0312,-0.15625 0.0469,-0.0625 0.15625,-0.10938 0.125,-0.0625 0.3125,-0.0781 0.1875,-0.0156 0.46875,-0.0156 0.28125,0 0.46875,0.0156 0.1875,0.0156 0.29688,0.0781 0.125,0.0469 0.17187,0.10938 0.0469,0.0625 0.0469,0.15625 l 0,6.14062 q 0,0.92188 0.125,1.48438 0.14062,0.5625 0.40625,0.95312 0.28125,0.39063 0.70312,0.60938 0.42188,0.21875 0.98438,0.21875 0.73437,0 1.45312,-0.51563 0.71875,-0.51562 1.53125,-1.51562 l 0,-7.375 q 0,-0.0937 0.0312,-0.15625 0.0469,-0.0625 0.15625,-0.10938 0.125,-0.0625 0.29688,-0.0781 0.1875,-0.0156 0.48437,-0.0156 0.28125,0 0.46875,0.0156 0.1875,0.0156 0.28125,0.0781 0.10938,0.0469 0.15625,0.10938 0.0625,0.0625 0.0625,0.15625 l 0,10.54687 z m 9.0625,-0.76562 q 0,0.32812 -0.0469,0.53125 -0.0469,0.20312 -0.14063,0.29687 -0.0937,0.0937 -0.28125,0.1875 -0.1875,0.0781 -0.4375,0.125 -0.23437,0.0469 -0.5,0.0781 -0.26562,0.0469 -0.54687,0.0469 -0.8125,0 -1.40625,-0.21875 -0.57813,-0.21875 -0.95313,-0.65625 -0.375,-0.4375 -0.54687,-1.10937 -0.17188,-0.6875 -0.17188,-1.59375 l 0,-6.17188 -1.46875,0 q -0.1875,0 -0.29687,-0.1875 -0.0937,-0.1875 -0.0937,-0.60937 0,-0.21875 0.0312,-0.35938 0.0312,-0.15625 0.0781,-0.25 0.0469,-0.10937 0.10938,-0.14062 0.0781,-0.0469 0.17187,-0.0469 l 1.46875,0 0,-2.51562 q 0,-0.0781 0.0312,-0.14063 0.0469,-0.0781 0.15625,-0.125 0.125,-0.0625 0.3125,-0.0781 0.1875,-0.0312 0.46875,-0.0312 0.28125,0 0.46875,0.0312 0.1875,0.0156 0.29688,0.0781 0.10937,0.0469 0.15625,0.125 0.0469,0.0625 0.0469,0.14063 l 0,2.51562 2.70313,0 q 0.0937,0 0.15625,0.0469 0.0781,0.0312 0.125,0.14062 0.0625,0.0937 0.0781,0.25 0.0312,0.14063 0.0312,0.35938 0,0.42187 -0.10937,0.60937 -0.10938,0.1875 -0.28125,0.1875 l -2.70313,0 0,5.89063 q 0,1.09375 0.3125,1.65625 0.32813,0.54687 1.15625,0.54687 0.28125,0 0.48438,-0.0469 0.21875,-0.0625 0.375,-0.10938 0.17187,-0.0625 0.28125,-0.10937 0.125,-0.0625 0.21875,-0.0625 0.0469,0 0.0937,0.0312 0.0625,0.0312 0.0937,0.10937 0.0312,0.0781 0.0469,0.21875 0.0312,0.14063 0.0312,0.35938 z m 9.17969,-2.10938 q 0,0.8125 -0.3125,1.45313 -0.29688,0.625 -0.84375,1.0625 -0.54688,0.4375 -1.3125,0.65625 -0.76563,0.21875 -1.67188,0.21875 -0.5625,0 -1.07812,-0.0937 -0.5,-0.0781 -0.90625,-0.20313 -0.40625,-0.14062 -0.6875,-0.28125 -0.28125,-0.15625 -0.42188,-0.26562 -0.125,-0.125 -0.1875,-0.32813 -0.0469,-0.21875 -0.0469,-0.57812 0,-0.23438 0.0156,-0.375 0.0312,-0.15625 0.0625,-0.25 0.0312,-0.0937 0.0937,-0.125 0.0781,-0.0469 0.15625,-0.0469 0.125,0 0.375,0.15625 0.25,0.15625 0.625,0.34375 0.375,0.1875 0.875,0.34375 0.5,0.15625 1.15625,0.15625 0.5,0 0.89063,-0.0937 0.40625,-0.10937 0.6875,-0.3125 0.29687,-0.21875 0.45312,-0.53125 0.15625,-0.3125 0.15625,-0.75 0,-0.4375 -0.23437,-0.73437 -0.21875,-0.3125 -0.59375,-0.54688 -0.375,-0.23437 -0.84375,-0.42187 -0.46875,-0.1875 -0.96875,-0.375 -0.5,-0.20313 -0.96875,-0.45313 -0.46875,-0.25 -0.84375,-0.60937 -0.375,-0.375 -0.60938,-0.875 -0.23437,-0.5 -0.23437,-1.20313 0,-0.625 0.23437,-1.1875 0.25,-0.57812 0.73438,-1 0.48437,-0.4375 1.20312,-0.6875 0.71875,-0.26562 1.67188,-0.26562 0.42187,0 0.84375,0.0781 0.42187,0.0625 0.76562,0.17188 0.34375,0.10937 0.57813,0.23437 0.25,0.125 0.35937,0.21875 0.125,0.0937 0.17188,0.17188 0.0469,0.0625 0.0625,0.15625 0.0156,0.0781 0.0312,0.20312 0.0156,0.125 0.0156,0.3125 0,0.20313 -0.0156,0.35938 -0.0156,0.14062 -0.0625,0.23437 -0.0312,0.0937 -0.0937,0.14063 -0.0625,0.0312 -0.125,0.0312 -0.10938,0 -0.3125,-0.125 -0.20313,-0.125 -0.51563,-0.26563 -0.3125,-0.15625 -0.75,-0.28125 -0.42187,-0.14062 -0.96875,-0.14062 -0.5,0 -0.875,0.125 -0.375,0.10937 -0.60937,0.3125 -0.23438,0.20312 -0.35938,0.48437 -0.125,0.28125 -0.125,0.60938 0,0.45312 0.23438,0.76562 0.23437,0.3125 0.60937,0.54688 0.375,0.23437 0.84375,0.42187 0.48438,0.1875 0.98438,0.39063 0.5,0.1875 0.98437,0.4375 0.48438,0.25 0.85938,0.60937 0.375,0.34375 0.60937,0.84375 0.23438,0.48438 0.23438,1.15625 z"
       id="path137"
       inkscape:connector-curvature="0"
       style="fill:#ffffff;fill-rule:nonzero" />
  </g>
</svg>
