<svg version="1.1" viewBox="0.0 0.0 960.0 720.0" fill="none" stroke="none" stroke-linecap="square" stroke-miterlimit="10" xmlns:xlink="http://www.w3.org/1999/xlink" xmlns="http://www.w3.org/2000/svg"><clipPath id="p7.0"><path d="m0 0l960.0 0l0 720.0l-960.0 0l0 -720.0z" clip-rule="nonzero"/></clipPath><g clip-path="url(#p7.0)"><path fill="#000000" fill-opacity="0.0" d="m0 0l960.0 0l0 720.0l-960.0 0z" fill-rule="evenodd"/><g filter="url(#shadowFilter-p7.1)"><use xlink:href="#p7.1" transform="matrix(1.0 0.0 0.0 1.0 0.0 2.6666666666666665)"/></g><defs><filter id="shadowFilter-p7.1" filterUnits="userSpaceOnUse"><feGaussianBlur in="SourceAlpha" stdDeviation="3.5555553" result="blur"/><feComponentTransfer in="blur" color-interpolation-filters="sRGB"><feFuncR type="linear" slope="0" intercept="0.0"/><feFuncG type="linear" slope="0" intercept="0.0"/><feFuncB type="linear" slope="0" intercept="0.0"/><feFuncA type="linear" slope="0.7490196" intercept="0"/></feComponentTransfer></filter></defs><g id="p7.1"><defs><linearGradient id="p7.2" gradientUnits="userSpaceOnUse" gradientTransform="matrix(22.27153667721576 0.0 0.0 22.27153667721576 0.0 0.0)" spreadMethod="pad" x1="33.65333491812436" y1="27.299900925680788" x2="33.65333491812436" y2="5.0283642484650235"><stop offset="0.0" stop-color="#2a869f"/><stop offset="0.8" stop-color="#37b1d1"/><stop offset="1.0" stop-color="#34b3d5"/></linearGradient></defs><path fill="url(#p7.2)" d="m210.48839 111.989395l539.02313 0l0 496.02136l-539.02313 0z" fill-rule="evenodd"/></g><path fill="#000000" fill-opacity="0.0" d="m210.48839 111.989395l539.02313 0l0 56.26657l-539.02313 0z" fill-rule="evenodd"/><path fill="#ffffff" d="m231.91026 152.99876q0 0.359375 -0.046875 0.625q-0.03125 0.25 -0.125 0.4375q-0.09375 0.171875 -0.234375 0.25q-0.125 0.078125 -0.28125 0.078125l-12.125 0q-0.453125 0 -0.859375 -0.296875q-0.390625 -0.3125 -0.390625 -1.078125l0 -22.53125q0 -0.765625 0.390625 -1.0625q0.40625 -0.3125 0.859375 -0.3125l12.0 0q0.15625 0 0.28125 0.078125q0.125 0.078125 0.203125 0.265625q0.078125 0.171875 0.125 0.4375q0.046875 0.265625 0.046875 0.65625q0 0.34375 -0.046875 0.609375q-0.046875 0.265625 -0.125 0.4375q-0.078125 0.15625 -0.203125 0.234375q-0.125 0.078125 -0.28125 0.078125l-9.890625 0l0 7.9375l8.484375 0q0.15625 0 0.28125 0.09375q0.125 0.078125 0.203125 0.234375q0.09375 0.15625 0.125 0.4375q0.046875 0.265625 0.046875 0.640625q0 0.34375 -0.046875 0.609375q-0.03125 0.25 -0.125 0.40625q-0.078125 0.15625 -0.203125 0.21875q-0.125 0.0625 -0.28125 0.0625l-8.484375 0l0 9.046875l10.015625 0q0.15625 0 0.28125 0.078125q0.140625 0.078125 0.234375 0.25q0.09375 0.15625 0.125 0.421875q0.046875 0.265625 0.046875 0.65625zm20.234375 0.90625q0 0.15625 -0.078125 0.265625q-0.078125 0.09375 -0.25 0.1875q-0.171875 0.078125 -0.484375 0.109375q-0.3125 0.046875 -0.78125 0.046875q-0.5 0 -0.8125 -0.046875q-0.3125 -0.03125 -0.484375 -0.109375q-0.171875 -0.09375 -0.25 -0.1875q-0.078125 -0.109375 -0.078125 -0.265625l0 -10.296875q0 -1.5 -0.234375 -2.421875q-0.234375 -0.921875 -0.6875 -1.578125q-0.453125 -0.671875 -1.171875 -1.015625q-0.703125 -0.359375 -1.640625 -0.359375q-1.203125 0 -2.421875 0.859375q-1.203125 0.859375 -2.53125 2.515625l0 12.296875q0 0.15625 -0.078125 0.265625q-0.078125 0.09375 -0.265625 0.1875q-0.171875 0.078125 -0.484375 0.109375q-0.3125 0.046875 -0.796875 0.046875q-0.46875 0 -0.78125 -0.046875q-0.3125 -0.03125 -0.5 -0.109375q-0.1875 -0.09375 -0.265625 -0.1875q-0.0625 -0.109375 -0.0625 -0.265625l0 -17.578125q0 -0.15625 0.0625 -0.265625q0.0625 -0.109375 0.234375 -0.1875q0.171875 -0.09375 0.4375 -0.125q0.28125 -0.03125 0.734375 -0.03125q0.4375 0 0.71875 0.03125q0.28125 0.03125 0.4375 0.125q0.15625 0.078125 0.21875 0.1875q0.078125 0.109375 0.078125 0.265625l0 2.3125q1.484375 -1.65625 2.953125 -2.421875q1.46875 -0.78125 2.984375 -0.78125q1.75 0 2.953125 0.609375q1.203125 0.59375 1.9375 1.59375q0.75 0.984375 1.0625 2.328125q0.328125 1.328125 0.328125 3.203125l0 10.734375zm20.29689 -17.625q0 0.078125 -0.015625 0.171875q0 0.078125 -0.03125 0.1875q-0.015625 0.09375 -0.046875 0.21875q-0.03125 0.109375 -0.0625 0.25l-6.0 16.6875q-0.078125 0.21875 -0.203125 0.359375q-0.125 0.140625 -0.390625 0.21875q-0.25 0.078125 -0.640625 0.109375q-0.390625 0.03125 -0.96875 0.03125q-0.59375 0 -0.984375 -0.046875q-0.390625 -0.03125 -0.640625 -0.109375q-0.234375 -0.09375 -0.375 -0.21875q-0.125 -0.140625 -0.203125 -0.34375l-5.9843903 -16.6875q-0.078125 -0.234375 -0.125 -0.40625q-0.046875 -0.1875 -0.0625 -0.265625q0 -0.09375 0 -0.15625q0 -0.15625 0.078125 -0.265625q0.078125 -0.125 0.25001526 -0.1875q0.1875 -0.078125 0.484375 -0.09375q0.3125 -0.015625 0.765625 -0.015625q0.5625 0 0.90625 0.03125q0.34375 0.03125 0.53125 0.109375q0.1875 0.078125 0.265625 0.203125q0.09375 0.109375 0.171875 0.28125l4.953125 14.484375l0.078125 0.234375l0.0625 -0.234375l4.90625 -14.484375q0.03125 -0.171875 0.125 -0.28125q0.109375 -0.125 0.296875 -0.203125q0.1875 -0.078125 0.5 -0.109375q0.328125 -0.03125 0.859375 -0.03125q0.4375 0 0.734375 0.015625q0.296875 0.015625 0.453125 0.09375q0.171875 0.078125 0.234375 0.1875q0.078125 0.109375 0.078125 0.265625zm6.8789062 17.625q0 0.15625 -0.078125 0.265625q-0.078125 0.09375 -0.265625 0.1875q-0.171875 0.078125 -0.484375 0.109375q-0.3125 0.046875 -0.796875 0.046875q-0.46875 0 -0.78125 -0.046875q-0.3125 -0.03125 -0.5 -0.109375q-0.1875 -0.09375 -0.265625 -0.1875q-0.0625 -0.109375 -0.0625 -0.265625l0 -17.578125q0 -0.140625 0.0625 -0.25q0.078125 -0.125 0.265625 -0.203125q0.1875 -0.078125 0.5 -0.109375q0.3125 -0.046875 0.78125 -0.046875q0.484375 0 0.796875 0.046875q0.3125 0.03125 0.484375 0.109375q0.1875 0.078125 0.265625 0.203125q0.078125 0.109375 0.078125 0.25l0 17.578125zm0.359375 -23.515625q0 1.125 -0.4375 1.546875q-0.421875 0.40625 -1.5625 0.40625q-1.140625 0 -1.5625 -0.40625q-0.421875 -0.40625 -0.421875 -1.515625q0 -1.125 0.421875 -1.53125q0.4375 -0.421875 1.59375 -0.421875q1.140625 0 1.546875 0.40625q0.421875 0.390625 0.421875 1.515625zm15.8671875 7.078125q0 0.4375 -0.03125 0.734375q-0.015625 0.28125 -0.078125 0.453125q-0.046875 0.171875 -0.140625 0.265625q-0.078125 0.078125 -0.234375 0.078125q-0.15625 0 -0.390625 -0.078125q-0.21875 -0.09375 -0.5 -0.1875q-0.28125 -0.09375 -0.640625 -0.171875q-0.34375 -0.078125 -0.765625 -0.078125q-0.484375 0 -0.953125 0.203125q-0.46875 0.1875 -0.984375 0.640625q-0.515625 0.453125 -1.09375 1.203125q-0.5625 0.734375 -1.234375 1.8125l0 11.5625q0 0.15625 -0.078125 0.265625q-0.078125 0.09375 -0.265625 0.1875q-0.171875 0.078125 -0.484375 0.109375q-0.3125 0.046875 -0.796875 0.046875q-0.46875 0 -0.78125 -0.046875q-0.3125 -0.03125 -0.5 -0.109375q-0.1875 -0.09375 -0.265625 -0.1875q-0.0625 -0.109375 -0.0625 -0.265625l0 -17.578125q0 -0.15625 0.0625 -0.265625q0.0625 -0.109375 0.234375 -0.1875q0.171875 -0.09375 0.4375 -0.125q0.28125 -0.03125 0.734375 -0.03125q0.4375 0 0.71875 0.03125q0.28125 0.03125 0.4375 0.125q0.15625 0.078125 0.21875 0.1875q0.078125 0.109375 0.078125 0.265625l0 2.546875q0.71875 -1.046875 1.34375 -1.703125q0.640625 -0.671875 1.203125 -1.046875q0.578125 -0.390625 1.125 -0.53125q0.5625 -0.15625 1.125 -0.15625q0.25 0 0.578125 0.03125q0.328125 0.03125 0.671875 0.109375q0.359375 0.078125 0.640625 0.1875q0.28125 0.09375 0.390625 0.1875q0.125 0.09375 0.15625 0.1875q0.046875 0.078125 0.078125 0.21875q0.03125 0.140625 0.03125 0.40625q0.015625 0.265625 0.015625 0.703125zm20.023438 7.453125q0 2.140625 -0.578125 3.953125q-0.5625 1.796875 -1.6875 3.109375q-1.125 1.3125 -2.8125 2.046875q-1.6875 0.734375 -3.90625 0.734375q-2.171875 0 -3.78125 -0.640625q-1.609375 -0.65625 -2.6875 -1.875q-1.078125 -1.234375 -1.609375 -2.984375q-0.515625 -1.765625 -0.515625 -4.0q0 -2.140625 0.546875 -3.953125q0.5625 -1.8125 1.6875 -3.109375q1.125 -1.3125 2.796875 -2.03125q1.6875 -0.734375 3.921875 -0.734375q2.171875 0 3.78125 0.65625q1.609375 0.640625 2.6875 1.875q1.078125 1.21875 1.609375 2.984375q0.546875 1.75 0.546875 3.96875zm-3.40625 0.203125q0 -1.421875 -0.265625 -2.6875q-0.265625 -1.265625 -0.875 -2.21875q-0.59375 -0.96875 -1.640625 -1.515625q-1.03125 -0.5625 -2.5625 -0.5625q-1.4375 0 -2.46875 0.515625q-1.015625 0.5 -1.6875 1.4375q-0.65625 0.921875 -0.984375 2.1875q-0.3125 1.265625 -0.3125 2.765625q0 1.453125 0.265625 2.71875q0.265625 1.265625 0.875 2.21875q0.609375 0.953125 1.640625 1.515625q1.046875 0.546875 2.59375 0.546875q1.40625 0 2.4375 -0.5q1.03125 -0.515625 1.6875 -1.4375q0.671875 -0.921875 0.984375 -2.1875q0.3125 -1.265625 0.3125 -2.796875zm23.28125 8.78125q0 0.15625 -0.078125 0.265625q-0.078125 0.09375 -0.25 0.1875q-0.171875 0.078125 -0.484375 0.109375q-0.3125 0.046875 -0.78125 0.046875q-0.5 0 -0.8125 -0.046875q-0.3125 -0.03125 -0.484375 -0.109375q-0.171875 -0.09375 -0.25 -0.1875q-0.078125 -0.109375 -0.078125 -0.265625l0 -10.296875q0 -1.5 -0.234375 -2.421875q-0.234375 -0.921875 -0.6875 -1.578125q-0.453125 -0.671875 -1.171875 -1.015625q-0.703125 -0.359375 -1.640625 -0.359375q-1.203125 0 -2.421875 0.859375q-1.203125 0.859375 -2.53125 2.515625l0 12.296875q0 0.15625 -0.078125 0.265625q-0.078125 0.09375 -0.265625 0.1875q-0.171875 0.078125 -0.484375 0.109375q-0.3125 0.046875 -0.796875 0.046875q-0.46875 0 -0.78125 -0.046875q-0.3125 -0.03125 -0.5 -0.109375q-0.1875 -0.09375 -0.265625 -0.1875q-0.0625 -0.109375 -0.0625 -0.265625l0 -17.578125q0 -0.15625 0.0625 -0.265625q0.0625 -0.109375 0.234375 -0.1875q0.171875 -0.09375 0.4375 -0.125q0.28125 -0.03125 0.734375 -0.03125q0.4375 0 0.71875 0.03125q0.28125 0.03125 0.4375 0.125q0.15625 0.078125 0.21875 0.1875q0.078125 0.109375 0.078125 0.265625l0 2.3125q1.484375 -1.65625 2.953125 -2.421875q1.46875 -0.78125 2.984375 -0.78125q1.75 0 2.953125 0.609375q1.203125 0.59375 1.9375 1.59375q0.75 0.984375 1.0625 2.328125q0.328125 1.328125 0.328125 3.203125l0 10.734375zm31.953125 0q0 0.15625 -0.078125 0.265625q-0.078125 0.09375 -0.25 0.1875q-0.171875 0.078125 -0.484375 0.109375q-0.3125 0.046875 -0.78125 0.046875q-0.5 0 -0.8125 -0.046875q-0.3125 -0.03125 -0.5 -0.109375q-0.171875 -0.09375 -0.25 -0.1875q-0.078125 -0.109375 -0.078125 -0.265625l0 -10.6875q0 -1.109375 -0.203125 -2.03125q-0.1875 -0.921875 -0.625 -1.578125q-0.421875 -0.671875 -1.09375 -1.015625q-0.65625 -0.359375 -1.5625 -0.359375q-1.109375 0 -2.234375 0.859375q-1.125 0.859375 -2.46875 2.515625l0 12.296875q0 0.15625 -0.078125 0.265625q-0.078125 0.09375 -0.265625 0.1875q-0.1875 0.078125 -0.5 0.109375q-0.3125 0.046875 -0.78125 0.046875q-0.453125 0 -0.78125 -0.046875q-0.3125 -0.03125 -0.5 -0.109375q-0.1875 -0.09375 -0.25 -0.1875q-0.0625 -0.109375 -0.0625 -0.265625l0 -10.6875q0 -1.109375 -0.21875 -2.03125q-0.21875 -0.921875 -0.65625 -1.578125q-0.421875 -0.671875 -1.078125 -1.015625q-0.65625 -0.359375 -1.546875 -0.359375q-1.109375 0 -2.25 0.859375q-1.125 0.859375 -2.453125 2.515625l0 12.296875q0 0.15625 -0.078125 0.265625q-0.078125 0.09375 -0.265625 0.1875q-0.171875 0.078125 -0.484375 0.109375q-0.3125 0.046875 -0.796875 0.046875q-0.46875 0 -0.78125 -0.046875q-0.3125 -0.03125 -0.5 -0.109375q-0.1875 -0.09375 -0.265625 -0.1875q-0.0625 -0.109375 -0.0625 -0.265625l0 -17.578125q0 -0.15625 0.0625 -0.265625q0.0625 -0.109375 0.234375 -0.1875q0.171875 -0.09375 0.4375 -0.125q0.28125 -0.03125 0.734375 -0.03125q0.4375 0 0.71875 0.03125q0.28125 0.03125 0.4375 0.125q0.15625 0.078125 0.21875 0.1875q0.078125 0.109375 0.078125 0.265625l0 2.3125q1.484375 -1.65625 2.875 -2.421875q1.390625 -0.78125 2.828125 -0.78125q1.09375 0 1.953125 0.265625q0.875 0.25 1.53125 0.71875q0.671875 0.453125 1.140625 1.09375q0.46875 0.625 0.78125 1.40625q0.875 -0.953125 1.65625 -1.609375q0.796875 -0.671875 1.53125 -1.078125q0.734375 -0.421875 1.421875 -0.609375q0.703125 -0.1875 1.40625 -0.1875q1.703125 0 2.84375 0.609375q1.15625 0.59375 1.859375 1.59375q0.71875 0.984375 1.015625 2.328125q0.3125 1.328125 0.3125 2.8125l0 11.125zm20.875 -9.5625q0 0.765625 -0.375 1.09375q-0.375 0.3125 -0.875 0.3125l-11.515625 0q0 1.46875 0.28125 2.640625q0.296875 1.171875 0.984375 2.015625q0.6875 0.84375 1.78125 1.296875q1.09375 0.4375 2.671875 0.4375q1.25 0 2.21875 -0.203125q0.984375 -0.203125 1.6875 -0.453125q0.71875 -0.265625 1.171875 -0.46875q0.46875 -0.203125 0.703125 -0.203125q0.140625 0 0.25 0.078125q0.109375 0.0625 0.15625 0.203125q0.0625 0.125 0.09375 0.375q0.03125 0.25 0.03125 0.59375q0 0.25 -0.03125 0.4375q-0.015625 0.1875 -0.046875 0.34375q-0.015625 0.140625 -0.09375 0.265625q-0.0625 0.109375 -0.171875 0.21875q-0.109375 0.109375 -0.640625 0.359375q-0.515625 0.234375 -1.359375 0.46875q-0.84375 0.234375 -1.953125 0.421875q-1.09375 0.1875 -2.34375 0.1875q-2.171875 0 -3.8125 -0.609375q-1.625 -0.609375 -2.734375 -1.796875q-1.109375 -1.1875 -1.6875 -2.984375q-0.5625 -1.796875 -0.5625 -4.1875q0 -2.265625 0.578125 -4.0625q0.59375 -1.8125 1.703125 -3.0625q1.109375 -1.265625 2.671875 -1.9375q1.5625 -0.6875 3.484375 -0.6875q2.078125 0 3.53125 0.671875q1.453125 0.65625 2.390625 1.78125q0.9375 1.125 1.375 2.640625q0.4375 1.515625 0.4375 3.234375l0 0.578125zm-3.234375 -0.953125q0.0625 -2.53125 -1.125 -3.96875q-1.1875 -1.453125 -3.5 -1.453125q-1.203125 0 -2.109375 0.453125q-0.890625 0.4375 -1.5 1.1875q-0.59375 0.734375 -0.9375 1.71875q-0.328125 0.984375 -0.359375 2.0625l9.53125 0zm23.277344 10.515625q0 0.15625 -0.078125 0.265625q-0.078125 0.09375 -0.25 0.1875q-0.171875 0.078125 -0.484375 0.109375q-0.3125 0.046875 -0.78125 0.046875q-0.5 0 -0.8125 -0.046875q-0.3125 -0.03125 -0.484375 -0.109375q-0.171875 -0.09375 -0.25 -0.1875q-0.078125 -0.109375 -0.078125 -0.265625l0 -10.296875q0 -1.5 -0.234375 -2.421875q-0.234375 -0.921875 -0.6875 -1.578125q-0.453125 -0.671875 -1.171875 -1.015625q-0.703125 -0.359375 -1.640625 -0.359375q-1.203125 0 -2.421875 0.859375q-1.203125 0.859375 -2.53125 2.515625l0 12.296875q0 0.15625 -0.078125 0.265625q-0.078125 0.09375 -0.265625 0.1875q-0.171875 0.078125 -0.484375 0.109375q-0.3125 0.046875 -0.796875 0.046875q-0.46875 0 -0.78125 -0.046875q-0.3125 -0.03125 -0.5 -0.109375q-0.1875 -0.09375 -0.265625 -0.1875q-0.0625 -0.109375 -0.0625 -0.265625l0 -17.578125q0 -0.15625 0.0625 -0.265625q0.0625 -0.109375 0.234375 -0.1875q0.171875 -0.09375 0.4375 -0.125q0.28125 -0.03125 0.734375 -0.03125q0.4375 0 0.71875 0.03125q0.28125 0.03125 0.4375 0.125q0.15625 0.078125 0.21875 0.1875q0.078125 0.109375 0.078125 0.265625l0 2.3125q1.484375 -1.65625 2.953125 -2.421875q1.46875 -0.78125 2.984375 -0.78125q1.75 0 2.953125 0.609375q1.203125 0.59375 1.9375 1.59375q0.75 0.984375 1.0625 2.328125q0.328125 1.328125 0.328125 3.203125l0 10.734375zm15.015625 -1.296875q0 0.5625 -0.078125 0.90625q-0.078125 0.328125 -0.234375 0.484375q-0.15625 0.15625 -0.46875 0.296875q-0.3125 0.140625 -0.71875 0.21875q-0.390625 0.09375 -0.84375 0.140625q-0.4375 0.0625 -0.890625 0.0625q-1.375 0 -2.359375 -0.359375q-0.96875 -0.359375 -1.59375 -1.09375q-0.625 -0.734375 -0.90625 -1.859375q-0.28125 -1.125 -0.28125 -2.640625l0 -10.28125l-2.453125 0q-0.296875 0 -0.484375 -0.3125q-0.171875 -0.3125 -0.171875 -1.015625q0 -0.359375 0.046875 -0.609375q0.0625 -0.265625 0.140625 -0.421875q0.078125 -0.171875 0.203125 -0.234375q0.125 -0.078125 0.28125 -0.078125l2.4375 0l0 -4.171875q0 -0.140625 0.0625 -0.25q0.078125 -0.125 0.265625 -0.203125q0.1875 -0.09375 0.5 -0.125q0.3125 -0.046875 0.78125 -0.046875q0.484375 0 0.796875 0.046875q0.3125 0.03125 0.484375 0.125q0.171875 0.078125 0.25 0.203125q0.078125 0.109375 0.078125 0.25l0 4.171875l4.515625 0q0.15625 0 0.265625 0.078125q0.125 0.0625 0.203125 0.234375q0.09375 0.15625 0.125 0.421875q0.046875 0.25 0.046875 0.609375q0 0.703125 -0.171875 1.015625q-0.171875 0.3125 -0.46875 0.3125l-4.515625 0l0 9.8125q0 1.8125 0.53125 2.75q0.546875 0.921875 1.9375 0.921875q0.453125 0 0.796875 -0.078125q0.359375 -0.09375 0.625 -0.1875q0.28125 -0.109375 0.46875 -0.1875q0.203125 -0.09375 0.359375 -0.09375q0.09375 0 0.171875 0.046875q0.09375 0.046875 0.140625 0.1875q0.046875 0.140625 0.078125 0.375q0.046875 0.234375 0.046875 0.578125z" fill-rule="nonzero"/><g filter="url(#shadowFilter-p7.3)"><use xlink:href="#p7.3" transform="matrix(1.0 0.0 0.0 1.0 0.0 2.4146981627296586)"/></g><defs><filter id="shadowFilter-p7.3" filterUnits="userSpaceOnUse"><feGaussianBlur in="SourceAlpha" stdDeviation="1.3333334" result="blur"/><feComponentTransfer in="blur" color-interpolation-filters="sRGB"><feFuncR type="linear" slope="0" intercept="0.0"/><feFuncG type="linear" slope="0" intercept="0.0"/><feFuncB type="linear" slope="0" intercept="0.0"/><feFuncA type="linear" slope="0.34901962" intercept="0"/></feComponentTransfer></filter></defs><g id="p7.3"><defs><linearGradient id="p7.4" gradientUnits="userSpaceOnUse" gradientTransform="matrix(16.487191675275398 0.0 0.0 16.487191675275398 0.0 0.0)" spreadMethod="pad" x1="38.62998550255298" y1="31.94449128514812" x2="38.62998550255298" y2="15.457299609872724"><stop offset="0.0" stop-color="#5e437e"/><stop offset="0.8" stop-color="#7b58a6"/><stop offset="1.0" stop-color="#7b57a8"/></linearGradient></defs><path fill="url(#p7.4)" d="m326.3791 254.84746l310.52087 0l0 271.8275l-310.52087 0z" fill-rule="evenodd"/><path stroke="#7d60a0" stroke-width="5.333333333333333" stroke-miterlimit="400.0" stroke-linecap="butt" d="m326.3791 254.84746l310.52087 0l0 271.8275l-310.52087 0z" fill-rule="evenodd"/></g><path fill="#000000" fill-opacity="0.0" d="m326.3791 362.62796l310.52087 0l0 56.2666l-310.52087 0z" fill-rule="evenodd"/><path fill="#ffffff" d="m438.62585 387.28625q0 1.890625 -0.625 3.421875q-0.625 1.515625 -1.796875 2.59375q-1.15625 1.078125 -2.84375 1.671875q-1.6875 0.578125 -4.03125 0.578125l-2.875 0l0 9.09375q0 0.15625 -0.09375 0.28125q-0.078125 0.109375 -0.265625 0.1875q-0.1875 0.0625 -0.515625 0.109375q-0.3125 0.0625 -0.796875 0.0625q-0.5 0 -0.828125 -0.0625q-0.3125 -0.046875 -0.515625 -0.109375q-0.1875 -0.078125 -0.265625 -0.1875q-0.078125 -0.125 -0.078125 -0.28125l0 -23.3125q0 -0.78125 0.40625 -1.109375q0.421875 -0.34375 0.921875 -0.34375l5.40625 0q0.828125 0 1.578125 0.078125q0.75 0.0625 1.765625 0.296875q1.03125 0.21875 2.09375 0.84375q1.078125 0.609375 1.8125 1.515625q0.75 0.890625 1.140625 2.078125q0.40625 1.171875 0.40625 2.59375zm-3.53125 0.28125q0 -1.546875 -0.578125 -2.578125q-0.578125 -1.046875 -1.4375 -1.546875q-0.84375 -0.515625 -1.75 -0.640625q-0.90625 -0.140625 -1.765625 -0.140625l-3.109375 0l0 10.140625l3.03125 0q1.515625 0 2.515625 -0.390625q1.015625 -0.390625 1.703125 -1.078125q0.6875 -0.703125 1.03125 -1.671875q0.359375 -0.96875 0.359375 -2.09375zm18.570312 0.671875q0 0.4375 -0.03125 0.734375q-0.015625 0.28125 -0.078125 0.453125q-0.046875 0.171875 -0.140625 0.265625q-0.078125 0.078125 -0.234375 0.078125q-0.15625 0 -0.390625 -0.078125q-0.21875 -0.09375 -0.5 -0.1875q-0.28125 -0.09375 -0.640625 -0.171875q-0.34375 -0.078125 -0.765625 -0.078125q-0.484375 0 -0.953125 0.203125q-0.46875 0.1875 -0.984375 0.640625q-0.515625 0.453125 -1.09375 1.203125q-0.5625 0.734375 -1.234375 1.8125l0 11.5625q0 0.15625 -0.078125 0.265625q-0.078125 0.09375 -0.265625 0.1875q-0.171875 0.078125 -0.484375 0.109375q-0.3125 0.046875 -0.796875 0.046875q-0.46875 0 -0.78125 -0.046875q-0.3125 -0.03125 -0.5 -0.109375q-0.1875 -0.09375 -0.265625 -0.1875q-0.0625 -0.109375 -0.0625 -0.265625l0 -17.578125q0 -0.15625 0.0625 -0.265625q0.0625 -0.109375 0.234375 -0.1875q0.171875 -0.09375 0.4375 -0.125q0.28125 -0.03125 0.734375 -0.03125q0.4375 0 0.71875 0.03125q0.28125 0.03125 0.4375 0.125q0.15625 0.078125 0.21875 0.1875q0.078125 0.109375 0.078125 0.265625l0 2.546875q0.71875 -1.046875 1.34375 -1.703125q0.640625 -0.671875 1.203125 -1.046875q0.578125 -0.390625 1.125 -0.53125q0.5625 -0.15625 1.125 -0.15625q0.25 0 0.578125 0.03125q0.328125 0.03125 0.671875 0.109375q0.359375 0.078125 0.640625 0.1875q0.28125 0.09375 0.390625 0.1875q0.125 0.09375 0.15625 0.1875q0.046875 0.078125 0.078125 0.21875q0.03125 0.140625 0.03125 0.40625q0.015625 0.265625 0.015625 0.703125zm20.023438 7.453125q0 2.140625 -0.578125 3.953125q-0.5625 1.796875 -1.6875 3.109375q-1.125 1.3125 -2.8125 2.046875q-1.6875 0.734375 -3.90625 0.734375q-2.171875 0 -3.78125 -0.640625q-1.609375 -0.65625 -2.6875 -1.875q-1.078125 -1.234375 -1.609375 -2.984375q-0.515625 -1.765625 -0.515625 -4.0q0 -2.140625 0.546875 -3.953125q0.5625 -1.8125 1.6875 -3.109375q1.125 -1.3125 2.796875 -2.03125q1.6875 -0.734375 3.921875 -0.734375q2.171875 0 3.78125 0.65625q1.609375 0.640625 2.6875 1.875q1.078125 1.21875 1.609375 2.984375q0.546875 1.75 0.546875 3.96875zm-3.40625 0.203125q0 -1.421875 -0.265625 -2.6875q-0.265625 -1.265625 -0.875 -2.21875q-0.59375 -0.96875 -1.640625 -1.515625q-1.03125 -0.5625 -2.5625 -0.5625q-1.4375 0 -2.46875 0.515625q-1.015625 0.5 -1.6875 1.4375q-0.65625 0.921875 -0.984375 2.1875q-0.3125 1.265625 -0.3125 2.765625q0 1.453125 0.265625 2.71875q0.265625 1.265625 0.875 2.21875q0.609375 0.953125 1.640625 1.515625q1.046875 0.546875 2.59375 0.546875q1.40625 0 2.4375 -0.5q1.03125 -0.515625 1.6875 -1.4375q0.671875 -0.921875 0.984375 -2.1875q0.3125 -1.265625 0.3125 -2.796875zm20.78125 6.09375q0 0.34375 -0.015625 0.59375q-0.015625 0.234375 -0.078125 0.40625q-0.046875 0.15625 -0.109375 0.28125q-0.0625 0.125 -0.3125 0.375q-0.25 0.25 -0.84375 0.609375q-0.578125 0.359375 -1.3125 0.640625q-0.71875 0.28125 -1.578125 0.453125q-0.859375 0.1875 -1.78125 0.1875q-1.890625 0 -3.359375 -0.625q-1.46875 -0.625 -2.453125 -1.828125q-0.984375 -1.203125 -1.5 -2.953125q-0.515625 -1.75 -0.515625 -4.03125q0 -2.59375 0.625 -4.453125q0.640625 -1.875 1.734375 -3.0625q1.109375 -1.203125 2.59375 -1.765625q1.5 -0.578125 3.25 -0.578125q0.828125 0 1.625 0.15625q0.796875 0.15625 1.453125 0.40625q0.671875 0.25 1.1875 0.59375q0.515625 0.328125 0.75 0.5625q0.234375 0.234375 0.3125 0.375q0.09375 0.125 0.15625 0.3125q0.0625 0.1875 0.078125 0.421875q0.015625 0.234375 0.015625 0.578125q0 0.765625 -0.171875 1.078125q-0.171875 0.296875 -0.4375 0.296875q-0.28125 0 -0.671875 -0.3125q-0.375 -0.328125 -0.96875 -0.71875q-0.578125 -0.390625 -1.40625 -0.71875q-0.828125 -0.328125 -1.96875 -0.328125q-2.328125 0 -3.5625 1.796875q-1.234375 1.78125 -1.234375 5.1875q0 1.6875 0.3125 2.96875q0.328125 1.28125 0.953125 2.140625q0.625 0.859375 1.53125 1.28125q0.90625 0.421875 2.078125 0.421875q1.109375 0 1.953125 -0.34375q0.84375 -0.359375 1.453125 -0.78125q0.625 -0.421875 1.03125 -0.765625q0.421875 -0.34375 0.65625 -0.34375q0.140625 0 0.234375 0.078125q0.109375 0.078125 0.171875 0.265625q0.0625 0.1875 0.09375 0.46875q0.03125 0.28125 0.03125 0.671875zm19.273438 -6.875q0 0.765625 -0.375 1.09375q-0.375 0.3125 -0.875 0.3125l-11.515625 0q0 1.46875 0.28125 2.640625q0.296875 1.171875 0.984375 2.015625q0.6875 0.84375 1.78125 1.296875q1.09375 0.4375 2.671875 0.4375q1.25 0 2.21875 -0.203125q0.984375 -0.203125 1.6875 -0.453125q0.71875 -0.265625 1.171875 -0.46875q0.46875 -0.203125 0.703125 -0.203125q0.140625 0 0.25 0.078125q0.109375 0.0625 0.15625 0.203125q0.0625 0.125 0.09375 0.375q0.03125 0.25 0.03125 0.59375q0 0.25 -0.03125 0.4375q-0.015625 0.1875 -0.046875 0.34375q-0.015625 0.140625 -0.09375 0.265625q-0.0625 0.109375 -0.171875 0.21875q-0.109375 0.109375 -0.640625 0.359375q-0.515625 0.234375 -1.359375 0.46875q-0.84375 0.234375 -1.953125 0.421875q-1.09375 0.1875 -2.34375 0.1875q-2.171875 0 -3.8125 -0.609375q-1.625 -0.609375 -2.734375 -1.796875q-1.109375 -1.1875 -1.6875 -2.984375q-0.5625 -1.796875 -0.5625 -4.1875q0 -2.265625 0.578125 -4.0625q0.59375 -1.8125 1.703125 -3.0625q1.109375 -1.265625 2.671875 -1.9375q1.5625 -0.6875 3.484375 -0.6875q2.078125 0 3.53125 0.671875q1.453125 0.65625 2.390625 1.78125q0.9375 1.125 1.375 2.640625q0.4375 1.515625 0.4375 3.234375l0 0.578125zm-3.234375 -0.953125q0.0625 -2.53125 -1.125 -3.96875q-1.1875 -1.453125 -3.5 -1.453125q-1.203125 0 -2.109375 0.453125q-0.890625 0.4375 -1.5 1.1875q-0.59375 0.734375 -0.9375 1.71875q-0.328125 0.984375 -0.359375 2.0625l9.53125 0zm19.183594 5.71875q0 1.359375 -0.5 2.421875q-0.5 1.046875 -1.421875 1.765625q-0.921875 0.71875 -2.1875 1.09375q-1.265625 0.375 -2.796875 0.375q-0.9375 0 -1.78125 -0.15625q-0.84375 -0.140625 -1.53125 -0.359375q-0.671875 -0.234375 -1.140625 -0.46875q-0.46875 -0.25 -0.6875 -0.4375q-0.203125 -0.203125 -0.3125 -0.546875q-0.09375 -0.359375 -0.09375 -0.96875q0 -0.375 0.03125 -0.625q0.046875 -0.25 0.109375 -0.40625q0.0625 -0.15625 0.171875 -0.21875q0.109375 -0.078125 0.234375 -0.078125q0.21875 0 0.640625 0.265625q0.421875 0.265625 1.03125 0.578125q0.625 0.3125 1.453125 0.578125q0.84375 0.265625 1.9375 0.265625q0.828125 0 1.484375 -0.171875q0.671875 -0.1875 1.15625 -0.53125q0.484375 -0.34375 0.75 -0.859375q0.265625 -0.53125 0.265625 -1.25q0 -0.75 -0.390625 -1.25q-0.375 -0.515625 -1.0 -0.90625q-0.625 -0.390625 -1.40625 -0.6875q-0.78125 -0.3125 -1.609375 -0.640625q-0.828125 -0.328125 -1.625 -0.75q-0.78125 -0.421875 -1.40625 -1.015625q-0.625 -0.609375 -1.015625 -1.453125q-0.375 -0.84375 -0.375 -2.015625q0 -1.03125 0.390625 -1.96875q0.40625 -0.953125 1.203125 -1.671875q0.8125 -0.71875 2.0 -1.140625q1.203125 -0.4375 2.8125 -0.4375q0.703125 0 1.40625 0.125q0.703125 0.109375 1.265625 0.296875q0.5625 0.171875 0.96875 0.375q0.40625 0.203125 0.609375 0.359375q0.203125 0.15625 0.265625 0.28125q0.078125 0.109375 0.09375 0.265625q0.03125 0.140625 0.0625 0.359375q0.03125 0.203125 0.03125 0.515625q0 0.34375 -0.03125 0.59375q-0.03125 0.234375 -0.09375 0.390625q-0.0625 0.15625 -0.171875 0.234375q-0.09375 0.0625 -0.203125 0.0625q-0.1875 0 -0.515625 -0.21875q-0.328125 -0.21875 -0.859375 -0.453125q-0.53125 -0.25 -1.25 -0.46875q-0.703125 -0.21875 -1.625 -0.21875q-0.8125 0 -1.4375 0.1875q-0.625 0.1875 -1.03125 0.53125q-0.390625 0.34375 -0.609375 0.8125q-0.203125 0.46875 -0.203125 1.015625q0 0.765625 0.390625 1.28125q0.390625 0.515625 1.015625 0.90625q0.625 0.390625 1.421875 0.703125q0.8125 0.3125 1.640625 0.640625q0.828125 0.328125 1.640625 0.75q0.8125 0.40625 1.4375 1.0q0.625 0.578125 1.0 1.40625q0.390625 0.8125 0.390625 1.9375zm15.644531 0q0 1.359375 -0.5 2.421875q-0.5 1.046875 -1.421875 1.765625q-0.921875 0.71875 -2.1875 1.09375q-1.265625 0.375 -2.796875 0.375q-0.9375 0 -1.78125 -0.15625q-0.84375 -0.140625 -1.53125 -0.359375q-0.671875 -0.234375 -1.140625 -0.46875q-0.46875 -0.25 -0.6875 -0.4375q-0.203125 -0.203125 -0.3125 -0.546875q-0.09375 -0.359375 -0.09375 -0.96875q0 -0.375 0.03125 -0.625q0.046875 -0.25 0.109375 -0.40625q0.0625 -0.15625 0.171875 -0.21875q0.109375 -0.078125 0.234375 -0.078125q0.21875 0 0.640625 0.265625q0.421875 0.265625 1.03125 0.578125q0.625 0.3125 1.453125 0.578125q0.84375 0.265625 1.9375 0.265625q0.828125 0 1.484375 -0.171875q0.671875 -0.1875 1.15625 -0.53125q0.484375 -0.34375 0.75 -0.859375q0.265625 -0.53125 0.265625 -1.25q0 -0.75 -0.390625 -1.25q-0.375 -0.515625 -1.0 -0.90625q-0.625 -0.390625 -1.40625 -0.6875q-0.78125 -0.3125 -1.609375 -0.640625q-0.828125 -0.328125 -1.625 -0.75q-0.78125 -0.421875 -1.40625 -1.015625q-0.625 -0.609375 -1.015625 -1.453125q-0.375 -0.84375 -0.375 -2.015625q0 -1.03125 0.390625 -1.96875q0.40625 -0.953125 1.203125 -1.671875q0.8125 -0.71875 2.0 -1.140625q1.203125 -0.4375 2.8125 -0.4375q0.703125 0 1.40625 0.125q0.703125 0.109375 1.265625 0.296875q0.5625 0.171875 0.96875 0.375q0.40625 0.203125 0.609375 0.359375q0.203125 0.15625 0.265625 0.28125q0.078125 0.109375 0.09375 0.265625q0.03125 0.140625 0.0625 0.359375q0.03125 0.203125 0.03125 0.515625q0 0.34375 -0.03125 0.59375q-0.03125 0.234375 -0.09375 0.390625q-0.0625 0.15625 -0.171875 0.234375q-0.09375 0.0625 -0.203125 0.0625q-0.1875 0 -0.515625 -0.21875q-0.328125 -0.21875 -0.859375 -0.453125q-0.53125 -0.25 -1.25 -0.46875q-0.703125 -0.21875 -1.625 -0.21875q-0.8125 0 -1.4375 0.1875q-0.625 0.1875 -1.03125 0.53125q-0.390625 0.34375 -0.609375 0.8125q-0.203125 0.46875 -0.203125 1.015625q0 0.765625 0.390625 1.28125q0.390625 0.515625 1.015625 0.90625q0.625 0.390625 1.421875 0.703125q0.8125 0.3125 1.640625 0.640625q0.828125 0.328125 1.640625 0.75q0.8125 0.40625 1.4375 1.0q0.625 0.578125 1.0 1.40625q0.390625 0.8125 0.390625 1.9375z" fill-rule="nonzero"/><g filter="url(#shadowFilter-p7.5)"><use xlink:href="#p7.5" transform="matrix(1.0 0.0 0.0 1.0 0.0 2.099737532808399)"/></g><defs><filter id="shadowFilter-p7.5" filterUnits="userSpaceOnUse"><feGaussianBlur in="SourceAlpha" stdDeviation="1.3333334" result="blur"/><feComponentTransfer in="blur" color-interpolation-filters="sRGB"><feFuncR type="linear" slope="0" intercept="0.0"/><feFuncG type="linear" slope="0" intercept="0.0"/><feFuncB type="linear" slope="0" intercept="0.0"/><feFuncA type="linear" slope="0.3764706" intercept="0"/></feComponentTransfer></filter></defs><g id="p7.5"><path fill="#9bbb59" d="m11.934804 356.7257l226.52066 0l0 -32.63144l85.33354 66.66684l-85.33354 66.66681l0 -32.63141l-226.52066 0z" fill-rule="evenodd"/><path stroke="#ffffff" stroke-width="4.0" stroke-linejoin="round" stroke-linecap="butt" d="m11.934804 356.7257l226.52066 0l0 -32.63144l85.33354 66.66684l-85.33354 66.66681l0 -32.63141l-226.52066 0z" fill-rule="evenodd"/></g><path fill="#000000" fill-opacity="0.0" d="m11.934698 371.96112l268.28912 0l0 37.599976l-268.28912 0z" fill-rule="evenodd"/><path fill="#ffffff" d="m119.46012 398.98862q0 0.09375 -0.046875 0.171875q-0.046875 0.0625 -0.171875 0.109375q-0.109375 0.046875 -0.3125 0.078125q-0.1875 0.03125 -0.46875 0.03125q-0.28125 0 -0.484375 -0.03125q-0.203125 -0.03125 -0.328125 -0.078125q-0.109375 -0.046875 -0.15625 -0.109375q-0.046875 -0.078125 -0.046875 -0.171875l0 -14.546875q0 -0.09375 0.046875 -0.15625q0.0625 -0.078125 0.1875 -0.109375q0.125 -0.046875 0.3125 -0.078125q0.1875 -0.03125 0.46875 -0.03125q0.28125 0 0.46875 0.03125q0.203125 0.03125 0.3125 0.078125q0.125 0.03125 0.171875 0.109375q0.046875 0.0625 0.046875 0.15625l0 14.546875zm12.890617 0.015625q0 0.09375 -0.046875 0.15625q-0.046875 0.0625 -0.15625 0.125q-0.09375 0.046875 -0.28125 0.0625q-0.1875 0.03125 -0.46875 0.03125q-0.296875 0 -0.484375 -0.03125q-0.1875 -0.015625 -0.296875 -0.0625q-0.109375 -0.0625 -0.15625 -0.125q-0.046875 -0.0625 -0.046875 -0.15625l0 -6.171875q0 -0.90625 -0.140625 -1.453125q-0.140625 -0.546875 -0.40625 -0.9375q-0.265625 -0.40625 -0.703125 -0.609375q-0.421875 -0.21875 -0.984375 -0.21875q-0.7187424 0 -1.4531174 0.515625q-0.71875 0.515625 -1.515625 1.5l0 7.375q0 0.09375 -0.046875 0.15625q-0.046875 0.0625 -0.15625 0.125q-0.109375 0.046875 -0.296875 0.0625q-0.1875 0.03125 -0.484375 0.03125q-0.28125 0 -0.46875 -0.03125q-0.1875 -0.015625 -0.296875 -0.0625q-0.109375 -0.0625 -0.15625 -0.125q-0.03125 -0.0625 -0.03125 -0.15625l0 -10.546875q0 -0.09375 0.03125 -0.15625q0.03125 -0.0625 0.140625 -0.109375q0.109375 -0.0625 0.265625 -0.078125q0.171875 -0.015625 0.4375 -0.015625q0.265625 0 0.421875 0.015625q0.171875 0.015625 0.265625 0.078125q0.09375 0.046875 0.140625 0.109375q0.046875 0.0625 0.046875 0.15625l0 1.390625q0.890625 -0.984375 1.765625 -1.453125q0.890625 -0.46875 1.7968674 -0.46875q1.046875 0 1.765625 0.359375q0.71875 0.359375 1.15625 0.96875q0.453125 0.59375 0.640625 1.390625q0.203125 0.796875 0.203125 1.921875l0 6.4375zm13.234375 -5.4375q0 1.390625 -0.296875 2.5q-0.296875 1.09375 -0.890625 1.859375q-0.578125 0.765625 -1.4375 1.1875q-0.84375 0.40625 -1.953125 0.40625q-0.46875 0 -0.875 -0.09375q-0.390625 -0.09375 -0.765625 -0.28125q-0.375 -0.203125 -0.75 -0.5q-0.375 -0.3125 -0.796875 -0.734375l0 5.28125q0 0.09375 -0.046875 0.15625q-0.046875 0.078125 -0.15625 0.125q-0.109375 0.046875 -0.296875 0.0625q-0.1875 0.03125 -0.484375 0.03125q-0.28125 0 -0.46875 -0.03125q-0.1875 -0.015625 -0.296875 -0.0625q-0.109375 -0.046875 -0.15625 -0.125q-0.03125 -0.0625 -0.03125 -0.15625l0 -14.734375q0 -0.109375 0.03125 -0.171875q0.03125 -0.0625 0.140625 -0.109375q0.109375 -0.046875 0.265625 -0.0625q0.171875 -0.015625 0.40625 -0.015625q0.25 0 0.40625 0.015625q0.15625 0.015625 0.25 0.0625q0.109375 0.046875 0.15625 0.109375q0.046875 0.0625 0.046875 0.171875l0 1.421875q0.46875 -0.5 0.90625 -0.859375q0.453125 -0.359375 0.90625 -0.59375q0.453125 -0.25 0.921875 -0.375q0.484375 -0.125 1.015625 -0.125q1.140625 0 1.953125 0.453125q0.8125 0.4375 1.3125 1.21875q0.515625 0.765625 0.75 1.796875q0.234375 1.03125 0.234375 2.171875zm-2.046875 0.21875q0 -0.796875 -0.125 -1.546875q-0.109375 -0.765625 -0.421875 -1.34375q-0.296875 -0.59375 -0.796875 -0.9375q-0.5 -0.359375 -1.25 -0.359375q-0.375 0 -0.75 0.109375q-0.359375 0.109375 -0.734375 0.359375q-0.375 0.234375 -0.78125 0.625q-0.40625 0.390625 -0.859375 0.96875l0 4.1875q0.796875 0.984375 1.5 1.5q0.71875 0.515625 1.5 0.515625q0.734375 0 1.25 -0.34375q0.53125 -0.359375 0.84375 -0.9375q0.328125 -0.59375 0.46875 -1.3125q0.15625 -0.734375 0.15625 -1.484375zm13.984375 5.21875q0 0.09375 -0.046875 0.15625q-0.03125 0.0625 -0.140625 0.125q-0.109375 0.046875 -0.28125 0.0625q-0.15625 0.03125 -0.40625 0.03125q-0.265625 0 -0.4375 -0.03125q-0.171875 -0.015625 -0.28125 -0.0625q-0.09375 -0.0625 -0.125 -0.125q-0.03125 -0.0625 -0.03125 -0.15625l0 -1.390625q-0.90625 1.0 -1.796875 1.453125q-0.875 0.453125 -1.765625 0.453125q-1.0625 0 -1.78125 -0.34375q-0.71875 -0.359375 -1.171875 -0.953125q-0.4375 -0.609375 -0.640625 -1.40625q-0.1875 -0.8125 -0.1875 -1.953125l0 -6.40625q0 -0.09375 0.03125 -0.15625q0.046875 -0.0625 0.15625 -0.109375q0.125 -0.0625 0.3125 -0.078125q0.1875 -0.015625 0.46875 -0.015625q0.28125 0 0.46875 0.015625q0.1875 0.015625 0.296875 0.078125q0.125 0.046875 0.171875 0.109375q0.046875 0.0625 0.046875 0.15625l0 6.140625q0 0.921875 0.125 1.484375q0.140625 0.5625 0.40625 0.953125q0.28125 0.390625 0.703125 0.609375q0.421875 0.21875 0.984375 0.21875q0.734375 0 1.453125 -0.515625q0.71875 -0.515625 1.53125 -1.515625l0 -7.375q0 -0.09375 0.03125 -0.15625q0.046875 -0.0625 0.15625 -0.109375q0.125 -0.0625 0.296875 -0.078125q0.1875 -0.015625 0.484375 -0.015625q0.28125 0 0.46875 0.015625q0.1875 0.015625 0.28125 0.078125q0.109375 0.046875 0.15625 0.109375q0.0625 0.0625 0.0625 0.15625l0 10.546875zm9.0625 -0.765625q0 0.328125 -0.046875 0.53125q-0.046875 0.203125 -0.140625 0.296875q-0.09375 0.09375 -0.28125 0.1875q-0.1875 0.078125 -0.4375 0.125q-0.234375 0.046875 -0.5 0.078125q-0.265625 0.046875 -0.546875 0.046875q-0.8125 0 -1.40625 -0.21875q-0.578125 -0.21875 -0.953125 -0.65625q-0.375 -0.4375 -0.546875 -1.109375q-0.171875 -0.6875 -0.171875 -1.59375l0 -6.171875l-1.46875 0q-0.1875 0 -0.296875 -0.1875q-0.09375 -0.1875 -0.09375 -0.609375q0 -0.21875 0.03125 -0.359375q0.03125 -0.15625 0.078125 -0.25q0.046875 -0.109375 0.109375 -0.140625q0.078125 -0.046875 0.171875 -0.046875l1.46875 0l0 -2.515625q0 -0.078125 0.03125 -0.140625q0.046875 -0.078125 0.15625 -0.125q0.125 -0.0625 0.3125 -0.078125q0.1875 -0.03125 0.46875 -0.03125q0.28125 0 0.46875 0.03125q0.1875 0.015625 0.296875 0.078125q0.109375 0.046875 0.15625 0.125q0.046875 0.0625 0.046875 0.140625l0 2.515625l2.703125 0q0.09375 0 0.15625 0.046875q0.078125 0.03125 0.125 0.140625q0.0625 0.09375 0.078125 0.25q0.03125 0.140625 0.03125 0.359375q0 0.421875 -0.109375 0.609375q-0.109375 0.1875 -0.28125 0.1875l-2.703125 0l0 5.890625q0 1.09375 0.3125 1.65625q0.328125 0.546875 1.15625 0.546875q0.28125 0 0.484375 -0.046875q0.21875 -0.0625 0.375 -0.109375q0.171875 -0.0625 0.28125 -0.109375q0.125 -0.0625 0.21875 -0.0625q0.046875 0 0.09375 0.03125q0.0625 0.03125 0.09375 0.109375q0.03125 0.078125 0.046875 0.21875q0.03125 0.140625 0.03125 0.359375zm9.1796875 -2.109375q0 0.8125 -0.3125 1.453125q-0.296875 0.625 -0.84375 1.0625q-0.546875 0.4375 -1.3125 0.65625q-0.765625 0.21875 -1.671875 0.21875q-0.5625 0 -1.078125 -0.09375q-0.5 -0.078125 -0.90625 -0.203125q-0.40625 -0.140625 -0.6875 -0.28125q-0.28125 -0.15625 -0.421875 -0.265625q-0.125 -0.125 -0.1875 -0.328125q-0.046875 -0.21875 -0.046875 -0.578125q0 -0.234375 0.015625 -0.375q0.03125 -0.15625 0.0625 -0.25q0.03125 -0.09375 0.09375 -0.125q0.078125 -0.046875 0.15625 -0.046875q0.125 0 0.375 0.15625q0.25 0.15625 0.625 0.34375q0.375 0.1875 0.875 0.34375q0.5 0.15625 1.15625 0.15625q0.5 0 0.890625 -0.09375q0.40625 -0.109375 0.6875 -0.3125q0.296875 -0.21875 0.453125 -0.53125q0.15625 -0.3125 0.15625 -0.75q0 -0.4375 -0.234375 -0.734375q-0.21875 -0.3125 -0.59375 -0.546875q-0.375 -0.234375 -0.84375 -0.421875q-0.46875 -0.1875 -0.96875 -0.375q-0.5 -0.203125 -0.96875 -0.453125q-0.46875 -0.25 -0.84375 -0.609375q-0.375 -0.375 -0.609375 -0.875q-0.234375 -0.5 -0.234375 -1.203125q0 -0.625 0.234375 -1.1875q0.25 -0.578125 0.734375 -1.0q0.484375 -0.4375 1.203125 -0.6875q0.71875 -0.265625 1.671875 -0.265625q0.421875 0 0.84375 0.078125q0.421875 0.0625 0.765625 0.171875q0.34375 0.109375 0.578125 0.234375q0.25 0.125 0.359375 0.21875q0.125 0.09375 0.171875 0.171875q0.046875 0.0625 0.0625 0.15625q0.015625 0.078125 0.03125 0.203125q0.015625 0.125 0.015625 0.3125q0 0.203125 -0.015625 0.359375q-0.015625 0.140625 -0.0625 0.234375q-0.03125 0.09375 -0.09375 0.140625q-0.0625 0.03125 -0.125 0.03125q-0.109375 0 -0.3125 -0.125q-0.203125 -0.125 -0.515625 -0.265625q-0.3125 -0.15625 -0.75 -0.28125q-0.421875 -0.140625 -0.96875 -0.140625q-0.5 0 -0.875 0.125q-0.375 0.109375 -0.609375 0.3125q-0.234375 0.203125 -0.359375 0.484375q-0.125 0.28125 -0.125 0.609375q0 0.453125 0.234375 0.765625q0.234375 0.3125 0.609375 0.546875q0.375 0.234375 0.84375 0.421875q0.484375 0.1875 0.984375 0.390625q0.5 0.1875 0.984375 0.4375q0.484375 0.25 0.859375 0.609375q0.375 0.34375 0.609375 0.84375q0.234375 0.484375 0.234375 1.15625z" fill-rule="nonzero"/><g filter="url(#shadowFilter-p7.6)"><use xlink:href="#p7.6" transform="matrix(1.0 0.0 0.0 1.0 0.0 2.099737532808399)"/></g><defs><filter id="shadowFilter-p7.6" filterUnits="userSpaceOnUse"><feGaussianBlur in="SourceAlpha" stdDeviation="1.3333334" result="blur"/><feComponentTransfer in="blur" color-interpolation-filters="sRGB"><feFuncR type="linear" slope="0" intercept="0.0"/><feFuncG type="linear" slope="0" intercept="0.0"/><feFuncB type="linear" slope="0" intercept="0.0"/><feFuncA type="linear" slope="0.3764706" intercept="0"/></feComponentTransfer></filter></defs><g id="p7.6"><path fill="#9bbb59" d="m639.4902 356.7257l226.52057 0l0 -32.63144l85.33356 66.66684l-85.33356 66.66681l0 -32.63141l-226.52057 0z" fill-rule="evenodd"/><path stroke="#ffffff" stroke-width="4.0" stroke-linejoin="round" stroke-linecap="butt" d="m639.4902 356.7257l226.52057 0l0 -32.63144l85.33356 66.66684l-85.33356 66.66681l0 -32.63141l-226.52057 0z" fill-rule="evenodd"/></g><path fill="#000000" fill-opacity="0.0" d="m639.4901 371.96112l268.289 0l0 37.599976l-268.289 0z" fill-rule="evenodd"/><path fill="#ffffff" d="m748.76154 391.5355q0 1.84375 -0.4375 3.328125q-0.421875 1.46875 -1.296875 2.515625q-0.859375 1.03125 -2.15625 1.59375q-1.296875 0.546875 -3.03125 0.546875q-1.71875 0 -2.96875 -0.5q-1.234375 -0.515625 -2.0625 -1.484375q-0.8125 -0.984375 -1.21875 -2.421875q-0.390625 -1.4375 -0.390625 -3.3125q0 -1.796875 0.4375 -3.25q0.4375 -1.46875 1.296875 -2.5q0.875 -1.03125 2.171875 -1.578125q1.296875 -0.5625 3.03125 -0.5625q1.6875 0 2.921875 0.515625q1.25 0.5 2.0625 1.46875q0.828125 0.953125 1.234375 2.390625q0.40625 1.421875 0.40625 3.25zm-2.125 0.140625q0 -1.28125 -0.234375 -2.390625q-0.21875 -1.109375 -0.75 -1.921875q-0.53125 -0.8125 -1.421875 -1.265625q-0.890625 -0.46875 -2.203125 -0.46875q-1.3125 0 -2.203125 0.5q-0.890625 0.484375 -1.453125 1.3125q-0.546875 0.8125 -0.796875 1.921875q-0.234375 1.09375 -0.234375 2.296875q0 1.328125 0.21875 2.453125q0.21875 1.125 0.75 1.953125q0.53125 0.8125 1.40625 1.265625q0.890625 0.4375 2.234375 0.4375q1.3125 0 2.21875 -0.484375q0.90625 -0.5 1.453125 -1.328125q0.546875 -0.84375 0.78125 -1.9375q0.234375 -1.109375 0.234375 -2.34375zm14.125 7.328125q0 0.09375 -0.046875 0.15625q-0.03125 0.0625 -0.140625 0.125q-0.109375 0.046875 -0.28125 0.0625q-0.15625 0.03125 -0.40625 0.03125q-0.265625 0 -0.4375 -0.03125q-0.171875 -0.015625 -0.28125 -0.0625q-0.09375 -0.0625 -0.125 -0.125q-0.03125 -0.0625 -0.03125 -0.15625l0 -1.390625q-0.90625 1.0 -1.796875 1.453125q-0.875 0.453125 -1.765625 0.453125q-1.0625 0 -1.78125 -0.34375q-0.71875 -0.359375 -1.171875 -0.953125q-0.4375 -0.609375 -0.640625 -1.40625q-0.1875 -0.8125 -0.1875 -1.953125l0 -6.40625q0 -0.09375 0.03125 -0.15625q0.046875 -0.0625 0.15625 -0.109375q0.125 -0.0625 0.3125 -0.078125q0.1875 -0.015625 0.46875 -0.015625q0.28125 0 0.46875 0.015625q0.1875 0.015625 0.296875 0.078125q0.125 0.046875 0.171875 0.109375q0.046875 0.0625 0.046875 0.15625l0 6.140625q0 0.921875 0.125 1.484375q0.140625 0.5625 0.40625 0.953125q0.28125 0.390625 0.703125 0.609375q0.421875 0.21875 0.984375 0.21875q0.734375 0 1.453125 -0.515625q0.71875 -0.515625 1.53125 -1.515625l0 -7.375q0 -0.09375 0.03125 -0.15625q0.046875 -0.0625 0.15625 -0.109375q0.125 -0.0625 0.296875 -0.078125q0.1875 -0.015625 0.484375 -0.015625q0.28125 0 0.46875 0.015625q0.1875 0.015625 0.28125 0.078125q0.109375 0.046875 0.15625 0.109375q0.0625 0.0625 0.0625 0.15625l0 10.546875zm9.0625 -0.765625q0 0.328125 -0.046875 0.53125q-0.046875 0.203125 -0.140625 0.296875q-0.09375 0.09375 -0.28125 0.1875q-0.1875 0.078125 -0.4375 0.125q-0.234375 0.046875 -0.5 0.078125q-0.265625 0.046875 -0.546875 0.046875q-0.8125 0 -1.40625 -0.21875q-0.578125 -0.21875 -0.953125 -0.65625q-0.375 -0.4375 -0.546875 -1.109375q-0.171875 -0.6875 -0.171875 -1.59375l0 -6.171875l-1.46875 0q-0.1875 0 -0.296875 -0.1875q-0.09375 -0.1875 -0.09375 -0.609375q0 -0.21875 0.03125 -0.359375q0.03125 -0.15625 0.078125 -0.25q0.046875 -0.109375 0.109375 -0.140625q0.078125 -0.046875 0.171875 -0.046875l1.46875 0l0 -2.515625q0 -0.078125 0.03125 -0.140625q0.046875 -0.078125 0.15625 -0.125q0.125 -0.0625 0.3125 -0.078125q0.1875 -0.03125 0.46875 -0.03125q0.28125 0 0.46875 0.03125q0.1875 0.015625 0.296875 0.078125q0.109375 0.046875 0.15625 0.125q0.046875 0.0625 0.046875 0.140625l0 2.515625l2.703125 0q0.09375 0 0.15625 0.046875q0.078125 0.03125 0.125 0.140625q0.0625 0.09375 0.078125 0.25q0.03125 0.140625 0.03125 0.359375q0 0.421875 -0.109375 0.609375q-0.109375 0.1875 -0.28125 0.1875l-2.703125 0l0 5.890625q0 1.09375 0.3125 1.65625q0.328125 0.546875 1.15625 0.546875q0.28125 0 0.484375 -0.046875q0.21875 -0.0625 0.375 -0.109375q0.171875 -0.0625 0.28125 -0.109375q0.125 -0.0625 0.21875 -0.0625q0.046875 0 0.09375 0.03125q0.0625 0.03125 0.09375 0.109375q0.03125 0.078125 0.046875 0.21875q0.03125 0.140625 0.03125 0.359375zm12.2578125 -4.671875q0 1.390625 -0.296875 2.5q-0.296875 1.09375 -0.890625 1.859375q-0.578125 0.765625 -1.4375 1.1875q-0.84375 0.40625 -1.953125 0.40625q-0.46875 0 -0.875 -0.09375q-0.390625 -0.09375 -0.765625 -0.28125q-0.375 -0.203125 -0.75 -0.5q-0.375 -0.3125 -0.796875 -0.734375l0 5.28125q0 0.09375 -0.046875 0.15625q-0.046875 0.078125 -0.15625 0.125q-0.109375 0.046875 -0.296875 0.0625q-0.1875 0.03125 -0.484375 0.03125q-0.28125 0 -0.46875 -0.03125q-0.1875 -0.015625 -0.296875 -0.0625q-0.109375 -0.046875 -0.15625 -0.125q-0.03125 -0.0625 -0.03125 -0.15625l0 -14.734375q0 -0.109375 0.03125 -0.171875q0.03125 -0.0625 0.140625 -0.109375q0.109375 -0.046875 0.265625 -0.0625q0.171875 -0.015625 0.40625 -0.015625q0.25 0 0.40625 0.015625q0.15625 0.015625 0.25 0.0625q0.109375 0.046875 0.15625 0.109375q0.046875 0.0625 0.046875 0.171875l0 1.421875q0.46875 -0.5 0.90625 -0.859375q0.453125 -0.359375 0.90625 -0.59375q0.453125 -0.25 0.921875 -0.375q0.484375 -0.125 1.015625 -0.125q1.140625 0 1.953125 0.453125q0.8125 0.4375 1.3125 1.21875q0.515625 0.765625 0.75 1.796875q0.234375 1.03125 0.234375 2.171875zm-2.046875 0.21875q0 -0.796875 -0.125 -1.546875q-0.109375 -0.765625 -0.421875 -1.34375q-0.296875 -0.59375 -0.796875 -0.9375q-0.5 -0.359375 -1.25 -0.359375q-0.375 0 -0.75 0.109375q-0.359375 0.109375 -0.734375 0.359375q-0.375 0.234375 -0.78125 0.625q-0.40625 0.390625 -0.859375 0.96875l0 4.1875q0.796875 0.984375 1.5 1.5q0.71875 0.515625 1.5 0.515625q0.734375 0 1.25 -0.34375q0.53125 -0.359375 0.84375 -0.9375q0.328125 -0.59375 0.46875 -1.3125q0.15625 -0.734375 0.15625 -1.484375zm13.984375 5.21875q0 0.09375 -0.046875 0.15625q-0.03125 0.0625 -0.140625 0.125q-0.109375 0.046875 -0.28125 0.0625q-0.15625 0.03125 -0.40625 0.03125q-0.265625 0 -0.4375 -0.03125q-0.171875 -0.015625 -0.28125 -0.0625q-0.09375 -0.0625 -0.125 -0.125q-0.03125 -0.0625 -0.03125 -0.15625l0 -1.390625q-0.90625 1.0 -1.796875 1.453125q-0.875 0.453125 -1.765625 0.453125q-1.0625 0 -1.78125 -0.34375q-0.71875 -0.359375 -1.171875 -0.953125q-0.4375 -0.609375 -0.640625 -1.40625q-0.1875 -0.8125 -0.1875 -1.953125l0 -6.40625q0 -0.09375 0.03125 -0.15625q0.046875 -0.0625 0.15625 -0.109375q0.125 -0.0625 0.3125 -0.078125q0.1875 -0.015625 0.46875 -0.015625q0.28125 0 0.46875 0.015625q0.1875 0.015625 0.296875 0.078125q0.125 0.046875 0.171875 0.109375q0.046875 0.0625 0.046875 0.15625l0 6.140625q0 0.921875 0.125 1.484375q0.140625 0.5625 0.40625 0.953125q0.28125 0.390625 0.703125 0.609375q0.421875 0.21875 0.984375 0.21875q0.734375 0 1.453125 -0.515625q0.71875 -0.515625 1.53125 -1.515625l0 -7.375q0 -0.09375 0.03125 -0.15625q0.046875 -0.0625 0.15625 -0.109375q0.125 -0.0625 0.296875 -0.078125q0.1875 -0.015625 0.484375 -0.015625q0.28125 0 0.46875 0.015625q0.1875 0.015625 0.28125 0.078125q0.109375 0.046875 0.15625 0.109375q0.0625 0.0625 0.0625 0.15625l0 10.546875zm9.0625 -0.765625q0 0.328125 -0.046875 0.53125q-0.046875 0.203125 -0.140625 0.296875q-0.09375 0.09375 -0.28125 0.1875q-0.1875 0.078125 -0.4375 0.125q-0.234375 0.046875 -0.5 0.078125q-0.265625 0.046875 -0.546875 0.046875q-0.8125 0 -1.40625 -0.21875q-0.578125 -0.21875 -0.953125 -0.65625q-0.375 -0.4375 -0.546875 -1.109375q-0.171875 -0.6875 -0.171875 -1.59375l0 -6.171875l-1.46875 0q-0.1875 0 -0.296875 -0.1875q-0.09375 -0.1875 -0.09375 -0.609375q0 -0.21875 0.03125 -0.359375q0.03125 -0.15625 0.078125 -0.25q0.046875 -0.109375 0.109375 -0.140625q0.078125 -0.046875 0.171875 -0.046875l1.46875 0l0 -2.515625q0 -0.078125 0.03125 -0.140625q0.046875 -0.078125 0.15625 -0.125q0.125 -0.0625 0.3125 -0.078125q0.1875 -0.03125 0.46875 -0.03125q0.28125 0 0.46875 0.03125q0.1875 0.015625 0.296875 0.078125q0.109375 0.046875 0.15625 0.125q0.046875 0.0625 0.046875 0.140625l0 2.515625l2.703125 0q0.09375 0 0.15625 0.046875q0.078125 0.03125 0.125 0.140625q0.0625 0.09375 0.078125 0.25q0.03125 0.140625 0.03125 0.359375q0 0.421875 -0.109375 0.609375q-0.109375 0.1875 -0.28125 0.1875l-2.703125 0l0 5.890625q0 1.09375 0.3125 1.65625q0.328125 0.546875 1.15625 0.546875q0.28125 0 0.484375 -0.046875q0.21875 -0.0625 0.375 -0.109375q0.171875 -0.0625 0.28125 -0.109375q0.125 -0.0625 0.21875 -0.0625q0.046875 0 0.09375 0.03125q0.0625 0.03125 0.09375 0.109375q0.03125 0.078125 0.046875 0.21875q0.03125 0.140625 0.03125 0.359375zm9.1796875 -2.109375q0 0.8125 -0.3125 1.453125q-0.296875 0.625 -0.84375 1.0625q-0.546875 0.4375 -1.3125 0.65625q-0.765625 0.21875 -1.671875 0.21875q-0.5625 0 -1.078125 -0.09375q-0.5 -0.078125 -0.90625 -0.203125q-0.40625 -0.140625 -0.6875 -0.28125q-0.28125 -0.15625 -0.421875 -0.265625q-0.125 -0.125 -0.1875 -0.328125q-0.046875 -0.21875 -0.046875 -0.578125q0 -0.234375 0.015625 -0.375q0.03125 -0.15625 0.0625 -0.25q0.03125 -0.09375 0.09375 -0.125q0.078125 -0.046875 0.15625 -0.046875q0.125 0 0.375 0.15625q0.25 0.15625 0.625 0.34375q0.375 0.1875 0.875 0.34375q0.5 0.15625 1.15625 0.15625q0.5 0 0.890625 -0.09375q0.40625 -0.109375 0.6875 -0.3125q0.296875 -0.21875 0.453125 -0.53125q0.15625 -0.3125 0.15625 -0.75q0 -0.4375 -0.234375 -0.734375q-0.21875 -0.3125 -0.59375 -0.546875q-0.375 -0.234375 -0.84375 -0.421875q-0.46875 -0.1875 -0.96875 -0.375q-0.5 -0.203125 -0.96875 -0.453125q-0.46875 -0.25 -0.84375 -0.609375q-0.375 -0.375 -0.609375 -0.875q-0.234375 -0.5 -0.234375 -1.203125q0 -0.625 0.234375 -1.1875q0.25 -0.578125 0.734375 -1.0q0.484375 -0.4375 1.203125 -0.6875q0.71875 -0.265625 1.671875 -0.265625q0.421875 0 0.84375 0.078125q0.421875 0.0625 0.765625 0.171875q0.34375 0.109375 0.578125 0.234375q0.25 0.125 0.359375 0.21875q0.125 0.09375 0.171875 0.171875q0.046875 0.0625 0.0625 0.15625q0.015625 0.078125 0.03125 0.203125q0.015625 0.125 0.015625 0.3125q0 0.203125 -0.015625 0.359375q-0.015625 0.140625 -0.0625 0.234375q-0.03125 0.09375 -0.09375 0.140625q-0.0625 0.03125 -0.125 0.03125q-0.109375 0 -0.3125 -0.125q-0.203125 -0.125 -0.515625 -0.265625q-0.3125 -0.15625 -0.75 -0.28125q-0.421875 -0.140625 -0.96875 -0.140625q-0.5 0 -0.875 0.125q-0.375 0.109375 -0.609375 0.3125q-0.234375 0.203125 -0.359375 0.484375q-0.125 0.28125 -0.125 0.609375q0 0.453125 0.234375 0.765625q0.234375 0.3125 0.609375 0.546875q0.375 0.234375 0.84375 0.421875q0.484375 0.1875 0.984375 0.390625q0.5 0.1875 0.984375 0.4375q0.484375 0.25 0.859375 0.609375q0.375 0.34375 0.609375 0.84375q0.234375 0.484375 0.234375 1.15625z" fill-rule="nonzero"/></g></svg>